<?xml version="1.0" encoding="utf-8"?>
<!-- Generator: Adobe Illustrator 22.1.0, SVG Export Plug-In . SVG Version: 6.00 Build 0)  -->
<svg version="1.1" id="Layer_1" xmlns="http://www.w3.org/2000/svg" xmlns:xlink="http://www.w3.org/1999/xlink" x="0px" y="0px"
	 viewBox="0 0 600 600" style="enable-background:new 0 0 600 600;" xml:space="preserve">
<style type="text/css">
	.st0{fill:#333746;}
	.st1{fill:#18151C;}
	.st2{fill:#55453E;}
	.st3{fill:#C57F50;}
	.st4{fill:#252731;}
	.st5{fill:#342A25;}
	.st6{fill:#FACD9F;}
	.st7{fill:#F9CC9E;}
	.st8{fill:#F5BB87;}
	.st9{fill:#FAC396;}
	.st10{fill:#856A57;}
	.st11{fill:#F09587;}
	.st12{fill:#CB4B44;}
	.st13{fill:#251E1B;}
	.st14{fill:#FFFFFF;}
</style>
<g id="face">
	<path class="st0" d="M402.5,526.3c-1.6,0-3.2,0-4.8,0c-0.7-0.8-1.6-0.5-2.5-0.5c-7.6,0-15.1,0-22.7,0c-4,0-8-0.1-11.9-0.1
		c0.3-0.8,0.7-1.6,1.2-2.3c4.5-6.9,9-13.7,13.4-20.6c0.8-1.2,1.4-2.5,1.9-3.9c2.2-6.2,3-12.7,3.3-19.2c0.1-2.2,0-4.5,0-6.7
		c0.7-0.1,0.9-0.5,0.9-1.2c0-1-0.1-1.9,0.1-2.9c0.6-4,0.9-8.1,0.9-12.1c0-11.6,0.4-23.3-0.5-34.9c-0.1-2-0.3-4-0.6-5.9
		c-0.4-3.1-0.9-6.1-0.9-9.2c0-0.5,0-1-0.1-1.4c-0.6-3.3-0.6-6.6,0-10c0.2-1,0.2-2.1,1.3-2.3c1.2-0.2,1.3,1.2,1.7,1.9
		c2.7,5,3.5,10.6,4.6,16c1.4,6.8,1.8,13.7,2.5,20.5c0.5,5.2,0.8,10.5,0.9,15.7c0.1,10,0.8,19.9,0.6,29.9c0,0.8-0.2,1.7,0.2,2.6
		c0.8-0.5,0.8-1.4,0.8-2.1c-0.1-3.8,0.8-7.6,0.5-11.4c-0.1-0.7,0.2-1.2,0.5-1.8c1.2-4.6,3.5-8.9,3.6-13.8c0.1-3,0.6-6,0.7-9
		c0.3-6.6-0.3-13.2-0.5-19.9c2.3-1.4,2.7-1.4,4.5,0.4c1,0.9,1.8,2,2.5,3.2c3.2,5.1,5.4,10.7,7.1,16.4c2.1,6.8,4.1,13.7,4.6,20.9
		c0,0.6,0.4,0.8,0.9,1c-0.4,11-1.7,21.8-4.7,32.4c-3.1,10.7-7.9,20.5-14.7,30c1.9,0,3.2,0,4.6,0C402.5,526,402.5,526.2,402.5,526.3z
		"/>
	<path class="st1" d="M37.7,526.3c-1-0.7-0.2-1.5,0-2.1c1.9-5.4,3.7-10.9,5.7-16.3c5.5-15.2,11.4-30.2,18.3-44.8
		c2.3-4.8,4.7-9.6,7.3-14.3c4.6-8.3,10.9-15.1,18-21.3c11.2-9.7,23.6-17.6,36.4-24.7c4.5-2.5,9-4.8,13.6-7c1-0.5,1.8-1,2.5-1.8
		c5.3-5.4,10.5-10.7,16.1-15.7c1.3-1.1,2.2-2.6,2.9-4.1c1.3-2.8,2.4-5.6,3.7-8.3c2.4-5.2,6-9.4,10.6-12.7c4.5-3.2,9-6.4,13.7-9.3
		c0.9-0.6,1.6-1.3,2.2-2.1c5.7-7.3,12.7-12.8,21.6-15.7c0.6,0,1.3,0,1.4,0.9c0.2,1,0.6,2,0.6,3c-0.7,0-1.4,0-2.1,0.3
		c-7.9,3.1-14.2,8.4-19.2,15.2c-0.6,0.9-0.9,1.8-0.9,2.9c-0.1,2.6,0.3,5.1,0.7,7.6c0.6,4.3,1.6,8.6,2.8,12.8c0.4,1.4,0.4,3,1.8,4
		c0,0.5,0,1,0.1,1.4c1,3.4,2.3,6.6,3.9,9.8c2,4.1,4.3,8,6.6,11.9c6.1,10.3,12.4,20.4,19,30.4c6,9.1,11.7,18.5,19,26.6
		c0.2,0.2,0.2,0.6-0.2,0.8c-0.8-0.2-1.2-0.9-1.8-1.5c-4.8-4.7-9.3-9.6-13.8-14.6c-3.9-4.4-7.6-9.1-11.1-13.8
		c-4.9-6.5-9-13.6-13.6-20.4c0.1-1.2-0.6-2.1-1.1-3.1c-4.5-8.7-8.3-17.6-10.7-27.1c-1.7-6.7-3-13.5-2.6-20.5c0.1-1.3,0-2.6,0-3.8
		c0-0.5,0.1-1-0.4-1.4c-0.7-0.1-1.3,0.4-1.9,0.8c-3.4,2.3-6.8,4.5-10.1,6.9c-2.7,2-5.4,3.9-7.5,6.6c-2.7,3.5-4.5,7.5-6.1,11.6
		c-1.2,3.1-2.8,5.9-5.2,8.2c-1.2,1.1-2.5,2-3.6,3.1c-3.8,3.7-7.5,7.4-11.2,11.2c-1.3,1.3-1.4,2-0.4,3.6c3.9,6.1,7.9,12.1,12.2,18
		c6.8,9.4,14.2,18.4,21.8,27.1c4.2,4.8,8.6,9.4,13,14c3.1,3.1,6.1,6.3,9.5,9.1c2.5,2,4.6,4.4,7,6.5c5.3,4.7,10.7,9.3,16.2,13.7
		c7.6,6.1,15.4,11.8,23.5,17.2c10.8,7.2,22,13.8,33.7,19.6c0.6,0.3,1.2,0.4,1.6,1c-3.3,0-6.7,0-10,0c-0.1-0.8-0.7-1-1.3-1.3
		c-4.9-2.8-9.8-5.6-14.7-8.5c-7.1-4.2-14.1-8.7-20.7-13.6c-7.9-5.8-15.8-11.7-23.2-18.3c-4.5-4-9.2-7.8-13.5-12.1
		c-0.6-0.6-1.1-1.2-1.7-1.7c-4.6-3.9-8.9-8.2-12.8-12.8c-1-1.1-2-2.3-3.3-3.1c-0.8-1-2.5-1-2.8-2.5c-0.3-1.8-1.7-2.6-2.8-3.7
		c-0.4-0.4-0.9-0.6-1.3-1.1c-3.3-4-6.5-8-9.7-12.1c-4.9-6.1-9.6-12.3-14.1-18.6c-2.3-3.2-4.5-6.4-6.8-9.6c0-0.7-0.3-1.2-0.9-1.5
		c-0.7-1.2-1.4-2.5-2.2-3.7c-1.1-1.8-1.4-1.9-3.3-1c-0.4,0.2-0.7,0.4-1.1,0.5c-7.8,3.9-15.4,8.1-22.7,12.8
		c-10.4,6.6-20.3,13.7-29,22.5c-5.5,5.5-9.8,11.7-13.3,18.6c-3.4,6.6-6.7,13.3-9.6,20.1c-1.9,4.6-3.9,9.1-5.7,13.7
		c-1.9,4.9-3.8,9.8-5.6,14.7c-2.8,7.4-5.5,14.8-7.8,22.3c-0.2,0.2-0.3,0.3-0.5,0.5C39.9,526.3,38.8,526.3,37.7,526.3z"/>
	<path class="st2" d="M41,526.3c0.2-0.2,0.3-0.3,0.5-0.5c1.9,0,3.8,0,5.7,0c0.7,0,1.4,0,2.2,0c69.1,0,138.1,0,207.2,0
		c0.8,0,1.6,0,2.4-0.1c4.2,0,8.3,0,12.5,0c3.3,0,6.7,0,10,0c8.6,0,17.3,0,25.9,0c15.6,0,31.2,0,46.7,0c0.5,0,1-0.1,1.4-0.1
		c1.7,0.1,3.4,0.2,5,0c4,0,8,0.1,11.9,0.1c7.6,0,15.1,0,22.7,0c0.8,0,1.8-0.3,2.5,0.5C278.8,526.3,159.9,526.3,41,526.3z"/>
	<path class="st2" d="M402.5,526.3c0-0.1,0-0.3,0-0.4c0.3,0,0.5-0.1,0.8-0.1c0.5,0,1,0.1,1.4,0.1c24.5,0,49.1,0,73.6,0
		c8.8,0,17.6,0,26.4,0c1.4,0.1,2.7,0.1,4.1,0.2c0,0.2-0.1,0.3-0.3,0.3C473.2,526.3,437.8,526.3,402.5,526.3z"/>
	<path class="st3" d="M189.4,228.2c0.2,0.2,0.3,0.4,0.5,0.5c-0.3,1.3,0.5,2.6,0.4,3.9c-4-0.2-4.6,0.4-4.7,4.5c0,0.2,0,0.5,0,0.7
		c-0.3,6.1,0.7,12,1.7,18c0.6,3.8,1.3,7.5,2.3,11.2c0.3,1.3,0.8,2.6,0.8,3.9c0.1,3.6,1.8,6.8,2.9,10.1c0.8,4.1,2.2,8,3.5,12
		c0.2,0.5,0.3,1.1,0.7,1.5c0.8,3,2.2,5.8,3.7,8.5c0.3,0.5,0.8,1,1.3,1.4c1,0.9,2.5,0.8,3.8,0.1c1.3-0.7,0.8-1.7,0.6-2.7
		c-0.7-4.7-1.4-9.4-2.1-14.1c-0.2-1.5-0.1-3-0.6-4.4c-0.5-1.6,0.2-3.3-0.8-4.8c0-1.4-0.2-2.8-0.3-4.2c-0.2-2.3-0.8-4.5-0.7-6.8
		c0.2,0,0.3,0,0.5,0c1.7,1.1,3.2,2.3,4.3,4.1c0.3,0.4,0.6,0.7,1.2,0.8c0.5,0.8,0.4,1.3-0.7,1.4c-0.1-0.2,0.2-0.7-0.3-0.5
		c-0.1,0,0.1,0.4,0.4,0.5c-0.3,3.6,0.6,7.1,1,10.7c0.7,6.5,1.8,12.9,2.9,19.3c1.2,7,2.6,13.9,4.3,20.8c2.4,9.4,5.2,18.8,10.3,27.2
		c3.6,5.8,7.8,11.1,12.9,15.6c6.5,5.7,13.5,10.7,20.9,15.1c2.2,1.3,4.2,2.9,6.7,3.7c5.6,3.5,11.6,6.2,18.2,7.2
		c3.5,1.3,7.1,1.6,10.7,1.9c3.8,0.3,7.7-0.1,11.4-0.9c5.8-1.3,11.4-3.1,16.3-6.7c3.4-2.4,6.5-5.2,9.6-7.9c2.6-2.4,5.1-4.8,7.8-7.1
		c6-5.2,11.4-11,16-17.4c5.2-7.4,8.6-15.7,10.8-24.4c3.1-12,5.5-24.2,7.4-36.5c1.2-7.8,2.2-15.6,3.2-23.4c0.6-5.4,1.4-10.7,1.5-16.2
		c0-0.4,0.1-0.8,0.4-1.1c0.6,0.9,0.3,1.9,0.5,2.9c-0.1,4.1,0,8.1,0.4,12.2c1-1.1,1-2.7,1.9-3.7c0,1,0.1,2,0.1,3
		c-0.7,3.8-1,7.7-1.4,11.5c-0.5,2.9-1.1,5.7-1.1,8.6c-1.2,5-1.6,10.2-2.6,15.2c-0.1,0.7,0.3,1.1,0.8,1.3c2.8,1.6,5,1.9,6.7-1.5
		c1.2-2.5,2.2-5.1,3-7.8c0.6-0.5,0.4-1.3,0.5-1.9c1.4-4.1,2.4-8.2,2.9-12.5c2-4.8,2.4-9.8,2.8-14.9c0.3-4.1,0.7-8.3,0.4-12.4
		c0.4-5.1-0.2-10.2-0.5-15.3c-0.1-1.2,0-2.6-1.2-3.5c0.6-1.9,0.1-3.9,0.8-5.8c1.9,0.6,3,2.1,3.7,3.9c0.7,1.7,1,3.5,1.1,5.4
		c0.7,8.4,0.7,16.8,0.5,25.2c-0.1,5.1-1.4,10-2.3,14.9c-1.4,7.1-2.9,14.3-5.3,21.1c-0.6,1.8-1.4,3.6-2.2,5.3
		c-2.1,4.6-6.1,6.9-11.4,4.5c-0.3-0.1-0.6-0.2-1-0.3c-0.9,4.1-1.7,8.1-2.6,12.2c-1.3,6.2-3,12.3-4.9,18.3c-2.1,6.2-4.9,12-8.6,17.4
		c-0.5,0.7-1.3,1.3-1,2.3c-1.7,0.5-2.2,2.1-3,3.4c-1.4,1.3-3,2.6-3.5,4.4c-1.3,4.4-2.5,8.8-3,13.4c-0.5,2.2-1.3,4.3-0.6,6.6
		c-0.8,0.8-0.9,1.8-0.9,2.9c-0.1,3.2-0.7,6.4-0.6,9.7c0,0.3,0.4,1-0.4,1c-0.5-4.7-0.9-9.3-0.9-14.1c-0.1-4.6,0.6-9.2,0.9-14
		c-0.4,0.1-0.6,0.1-0.7,0.2c-4.9,4.4-9.8,8.7-14.6,13.1c-4.5,4.1-9.3,7.7-15.1,9.9c-4.9,1.9-10,3.3-15.3,3.7c-5,0.3-10,0.2-15-0.9
		c-6.1-1.3-12.1-2.8-17.7-5.8c-4.2-2.2-8.4-4.6-12.5-7c-7.5-4.5-14.5-9.6-21-15.4c-5.9-5.3-10.8-11.5-14.7-18.5
		c-0.2-0.4-0.3-1-1.1-0.8c0.4,5.9-0.5,11.7-0.5,17.6c0,3.6-0.4,7.2-0.4,10.8c0,0.3-0.2,0.6-0.4,0.8c-0.8-5.3-0.9-10.7-1.4-16
		c-0.3-3-0.4-6-0.6-9c0-0.7-0.1-1.3-0.9-1.5c1-1.7,0.4-3.4,0.3-5.1c-0.1-2-0.1-4-0.2-5.9c0-1,0.1-2.1-0.2-3.1
		c-1-3.3-2.1-6.5-3.1-9.7c0-1-0.4-2-0.6-3c-0.2-0.9-0.8-0.8-1.4-0.9c0.7-0.5,1-1,0.7-1.9c-0.5-1.9-0.9-3.8-1.3-5.7
		c-0.5-2.7-1-5.3-1.6-8c-0.3-1.6-0.4-1.6-2-1.3c-4.1,0.8-7.4-0.8-9.4-4.5c-3.5-6.4-5.5-13.2-7.5-20.1c-0.2-0.8-0.5-1.5-1-2.1
		c0.4-0.9,0-1.7-0.3-2.5c-2-7.6-4-15.3-5.3-23.1c-1.1-6.8-2-13.6-1.7-20.5c0.1-1.2,0.2-2.4,0.5-3.5c0.9-3.2,2.9-4.8,6.3-4.8
		C188.4,228.1,188.9,228.2,189.4,228.2z"/>
	<path class="st1" d="M356.7,362.6c0.9-1.2,1.4-2.9,3-3.4c9,6.5,17.3,13.6,24.7,21.9c1.9,2.1,4.3,3.6,6.6,5.1
		c5.7,3.4,11.7,6.2,17.7,9c11.6,5.4,23.3,10.7,34.6,16.9c6.2,3.4,12.1,7.1,17.8,11.3c8,5.9,14.5,13.2,19.3,22
		c5.9,10.6,10.4,21.7,14.5,33.1c5.4,15.2,9.9,30.7,13.8,46.3c0.1,0.4,0.1,0.8,0.1,1.2c-1.4-0.1-2.7-0.1-4.1-0.2
		c-0.1-0.6,0-1.1-0.2-1.7c-1.8-5.9-3.2-11.8-4.9-17.7c-2.9-10.1-6.2-20.1-9.8-30c-3.6-9.8-7.5-19.5-12.7-28.6
		c-3.1-5.5-6.6-10.7-11.2-15.1c-2.1-2-4.3-3.8-6.6-5.5c-7-5.4-14.5-9.8-22.3-13.8c-6.7-3.5-13.4-6.8-20.2-9.9
		c-3.5-1.6-6.9-3.3-10.4-4.9c-0.3-0.2-0.7-0.4-1.1,0c0.1,0.9,0.6,1.6,1,2.4c1.2,2.4,2.4,4.9,3.6,7.3c0.6,1.3,1,2.7,2,3.8
		c0.1,1.9,1.1,3.5,1.7,5.2c2,6,3.6,12.2,5.1,18.4c1.1,4.4,2.2,8.8,2.3,13.4c0.1,9.5,0.5,19.1-0.8,28.6c-0.6,4.1-1.1,8.2-2,12.2
		c-2.5,11.5-6.7,22.2-12.9,32.2c-0.7,1.2-2,2.1-2.1,3.7c-0.3,0-0.5,0.1-0.8,0.1c-1.3,0-2.7,0-4.6,0c6.7-9.5,11.6-19.3,14.7-30
		c3-10.6,4.3-21.4,4.7-32.4c0-2.9-0.2-5.7-0.3-8.6c-0.2-4.7-0.8-9.3-1.5-13.9c-0.8-5.8-2.2-11.4-3.9-16.9
		c-2.6-8.6-5.9-16.8-10.4-24.5c-1-1.7-1.6-3.9-3.3-4.9c-2.9-1.7-5.7-3.5-8.9-4.6c-0.1-0.2-0.2-0.3-0.2-0.1c0,0,0.1,0.1,0.2,0.1
		c0,1.2,0.5,2.2,0.9,3.2c3.4,7.7,5.5,15.8,6.9,24.2c0.2,1.4,0,3,0.9,4.3c0.2,6.6,0.8,13.2,0.5,19.9c-0.1,3-0.6,6-0.7,9
		c-0.1,4.9-2.4,9.2-3.6,13.8c-0.9-0.1-0.9-0.7-0.9-1.4c0-3.3,0-6.6,0-9.8c0-0.3,0.1-0.6,0.1-0.9c0.3-2.1,0.8-4.2,0.8-6.4
		c0-9.9,0.5-19.8-1.3-29.6c-1.2-6.2-2.7-12.3-4.9-18.2c-1.6-4.4-4.1-8.5-5.7-12.9c-0.5-1.5-1.5-2.6-2.5-3.7
		c-5.9-6.1-12.2-11.7-18.9-16.9C359.3,363.7,358.2,362.7,356.7,362.6z"/>
	<path class="st1" d="M216,348.7c0.1,1.7,0.8,3.5-0.3,5.1c-3.7,3.6-6.6,7.8-7.4,13.1c-0.6,3.6,0.3,7,1.4,10.4
		c4.6,14,11.8,26.5,20.9,38c7.9,10.1,17.6,17.6,29.7,22.3c13.2,5.1,26.7,9.2,40.6,11.9c8.1,1.6,16.2,2.7,24.5,3.1
		c5.8,0.2,11.3-0.8,16.3-3.8c10.2-6.1,16.9-14.9,20.9-26c0.7-1.9,0.7-3.8,0.3-5.7c-0.3-1.6-0.6-3.1-1.1-4.7
		c-2.8-9.1-7.3-17.3-12.1-25.4c-0.8-2.3,0.1-4.4,0.6-6.6c2.5,3.5,4.5,7.3,6.6,11c1.2,2.1,2.7,4,3.6,6.1c3.6,7.9,6.5,16.1,9.2,24.3
		c3,9.2,5.6,18.6,7.6,28.1c1.6,7.6,2.4,15.4,3.1,23.1c0,2.2,0,4.5,0,6.7c-0.3,6.5-1.1,13-3.3,19.2c-0.5,1.4-1.1,2.7-1.9,3.9
		c-4.5,6.9-8.9,13.8-13.4,20.6c-0.5,0.7-1,1.5-1.2,2.3c-1.7,0.2-3.4,0.1-5,0c-0.9-1.8-2.7-2.6-4.3-3.6c-10.6-7-21-14.2-31.7-21
		c-1.3-0.8-2.5-1.7-4.1-1.7c-0.6,0-1-0.4-1.4-0.8c-0.6-0.6-1.3-1.2-2-1.7c-3-2.1-6-4.2-8.9-6.4c-5.2-3.9-10.3-8-15.3-12.2
		c-5.7-4.9-11.3-9.9-16.7-15c-2.5-2.3-4.9-4.6-7.4-6.8c-1.3-1.2-2.2-2.7-3.8-3.6c-0.2-0.6-0.8-1-1.2-1.5
		c-5.7-5.9-11.8-11.5-17.2-17.7c-2.9-3.3-6.2-6.2-9.1-9.5c-2.3-2.6-4.6-5.3-7.1-7.7c-0.3-0.3-0.9-0.7-0.7-1.2
		c0.4-1.6-0.7-2.5-1.5-3.6c-3.8-5.1-7-10.5-9.9-16.1c-3.8-7.3-7-14.9-8.6-23c-0.5-2.4-0.4-4.8,0-7.1c1-5.6,4.1-10,7.8-14
		C213.3,350.4,214.3,349,216,348.7z M252.2,438.5c-0.2-0.2-0.3-0.6-0.6-0.2C251.8,438.4,252,438.4,252.2,438.5c0,1,0.8,1.5,1.4,2.1
		c4.3,4.3,8.5,8.6,12.8,12.8c0.5,0.5,0.9,1.1,1.6,1.4c0.6,0.5,1.2,1,1.8,1.6c3.3,3.1,6.4,6.4,9.8,9.4c5,4.5,10,8.9,15.2,13.1
		c5.5,4.6,11.2,9,17.2,12.9c6.5,4.2,13.2,8,19.6,12.3c8.3,5.6,16.8,11,25,16.8c1.1,0.8,1.4,0.7,2.2-0.6c2.8-4.3,5.5-8.6,8.4-12.8
		c1.4-2.1,2.5-4.2,3.3-6.6c1-3.1,2.2-6.1,3.2-9.3c1.8-5.8,1.7-11.8,2.2-17.7c0-0.2,0-0.6-0.1-0.7c-1.1-1-0.7-2.4-0.7-3.6
		c0-2.4-0.3-4.8-0.7-7.1c-0.5-3.7-0.6-7.4-1.3-11.1c-0.7-3.7-1.2-7.5-2.4-11.2c-0.9-5.3-2.7-10.4-4.5-15.9c-1.4,3-2.4,5.7-3.8,8.1
		c-4.5,7.8-10.2,14.3-18,19.1c-5.7,3.5-11.8,4.9-18.4,5c-1.4,0-2.6-0.6-4-0.5c-4.1,0.2-8.1-0.5-12.1-1.1c-7.1-1-14.1-2.5-21-4.2
		c-9.2-2.3-18.3-4.9-27.1-8.5C258.7,441.1,255.5,439.8,252.2,438.5z"/>
	<path class="st4" d="M380.4,473.1c-0.8-7.7-1.5-15.5-3.1-23.1c-2-9.5-4.6-18.8-7.6-28.1c-2.7-8.3-5.6-16.4-9.2-24.3
		c-1-2.1-2.4-4-3.6-6.1c-2.1-3.7-4.1-7.6-6.6-11c0.5-4.6,1.7-9,3-13.4c0.5-1.8,2.1-3.1,3.5-4.4c1.5,0.1,2.6,1.1,3.8,2
		c6.7,5.2,13,10.8,18.9,16.9c1.1,1.1,2,2.2,2.5,3.7c1.6,4.4,4.1,8.5,5.7,12.9c2.1,5.9,3.7,12,4.9,18.2c1.9,9.8,1.3,19.7,1.3,29.6
		c0,2.1-0.5,4.2-0.8,6.4c0,0.3-0.1,0.6-0.1,0.9c0,3.3,0,6.6,0,9.8c0,0.7,0.1,1.3,0.9,1.4c-0.2,0.6-0.5,1.2-0.5,1.8
		c0.3,3.8-0.6,7.6-0.5,11.4c0,0.8,0,1.6-0.8,2.1c-0.3-0.9-0.2-1.8-0.2-2.6c0.2-10-0.6-19.9-0.6-29.9c0-5.2-0.4-10.5-0.9-15.7
		c-0.7-6.9-1.1-13.8-2.5-20.5c-1.1-5.4-1.9-11-4.6-16c-0.4-0.8-0.5-2.2-1.7-1.9c-1.1,0.2-1.1,1.3-1.3,2.3c-0.6,3.3-0.7,6.6,0,10
		c0.1,0.5,0.1,1,0.1,1.4c0,3.1,0.5,6.2,0.9,9.2c0.2,2,0.4,3.9,0.6,5.9c0.9,11.6,0.5,23.3,0.5,34.9c0,4-0.3,8.1-0.9,12.1
		c-0.1,0.9-0.1,1.9-0.1,2.9C381.4,472.5,381.1,473,380.4,473.1z"/>
	<path class="st4" d="M389,390c3.2,1.1,6,2.9,8.9,4.6c1.7,1,2.3,3.2,3.3,4.9c4.5,7.7,7.9,16,10.4,24.5c1.7,5.6,3,11.2,3.9,16.9
		c0.7,4.6,1.3,9.3,1.5,13.9c0.1,2.9,0.4,5.7,0.3,8.6c-0.5-0.1-0.8-0.4-0.9-1c-0.5-7.2-2.4-14.1-4.6-20.9c-1.8-5.7-3.9-11.3-7.1-16.4
		c-0.7-1.1-1.5-2.2-2.5-3.2c-1.9-1.8-2.3-1.8-4.5-0.4c-0.9-1.3-0.6-2.9-0.9-4.3c-1.3-8.3-3.5-16.4-6.9-24.2
		C389.5,392.2,389,391.2,389,390L389,390z"/>
	<path class="st0" d="M259,525.8c-0.8,0-1.6,0.1-2.4,0.1c-69.1,0-138.1,0-207.2,0c-0.7,0-1.4,0-2.2,0c1.3-6.2,3.2-12.2,5.1-18.2
		c2.5-7.9,5.3-15.7,8.7-23.3c3.2-7.2,6.6-14.3,11.4-20.7c2.8-3.7,5.7-7.2,9.7-9.8c3.1-2,6.4-3.4,10.1-3.3c4.1,0.2,8,1.6,11.5,3.7
		c5.6,3.3,10.3,7.8,14.3,12.9c4.8,6.1,9,12.8,12.6,19.7c4.8,9.3,9,18.9,12.4,28.8c0.5,1.3,0.6,2.9,1.8,4.2c0-2.5-0.2-4.6-0.4-6.7
		c-0.3-4.7-0.9-9.3-1.6-14c-1.1-6.6-2.4-13.1-4.4-19.5c-2.4-7.6-5.3-14.9-10.4-21.1c-2.9-3.6-6.5-6.2-10.9-7.4
		c-6.4-1.7-12.9-3.4-19.5-4.6c-1.8-0.3-3.8-0.8-5.4-1.8c-1.3-0.8-1.4-1.3-0.4-2.4c1.3-1.4,2.8-2.6,4.5-3.6
		c5.7-3.3,11.3-6.5,16.6-10.4c4.9-3.6,9.6-7.4,14.3-11.2c3.4-2.8,6.6-5.8,10-8.5c1.5-1.2,2.8-2.9,4.9-3.3c0.6,0.3,0.9,0.8,0.9,1.5
		c-0.2,0.1-0.4,0.2-0.6,0.4c-3.1,4.7-6.5,9.2-10.4,13.3c-0.7,0.8-1.2,1.8-1.9,2.6c1.1,0.9,2,0.2,2.8-0.1c4.6-1.9,9.2-3.9,13.8-5.9
		c1-0.4,1.9-0.9,3-0.7c4.5,6.4,9.3,12.5,14.1,18.6c3.2,4,6.5,8.1,9.7,12.1c0.3,0.4,0.9,0.7,1.3,1.1c1.1,1.1,2.5,1.9,2.8,3.7
		c0.2,1.4,2,1.5,2.8,2.5c-0.1,0.8,0.2,1.4,0.7,1.9c4.1,4.4,8.1,8.8,12.2,13.1c6.1,6.3,12.5,12.3,19.1,18.1c3.4,3,6.7,6.2,10.1,9.1
		c4.2,3.6,8.6,7.1,12.9,10.6c6.7,5.5,13.6,10.7,20.7,15.7C257.1,523.7,258.6,524.2,259,525.8z"/>
	<path class="st0" d="M259.9,452.9c1.6,0.9,2.5,2.5,3.8,3.6c2.5,2.2,4.9,4.5,7.4,6.8c5.5,5.1,11,10.1,16.7,15
		c5,4.2,10.1,8.3,15.3,12.2c2.9,2.2,5.9,4.3,8.9,6.4c0.7,0.5,1.4,1.1,2,1.7c0.4,0.4,0.8,0.8,1.4,0.8c1.6,0,2.8,0.9,4.1,1.7
		c10.7,6.8,21.1,14,31.7,21c1.6,1,3.4,1.8,4.3,3.6c-0.5,0-1,0.1-1.4,0.1c-15.6,0-31.2,0-46.7,0c-3.9-3.2-8-6-12.1-9
		c-6-4.4-12-8.7-18.2-12.8c-0.6-0.4-1.3-0.7-1.9-1c-0.3-0.2-0.6-0.1-0.8,0.2c-0.1,0.2-0.1,0.5,0,0.7c0.1,0.2,0.2,0.4,0.4,0.6
		c2.5,2.8,4.8,5.8,7.4,8.4c1.4,1.4,2.8,2.8,4.2,4.3c0.3,0.3,0.8,0.6,0.4,1.2c-0.3,0.1-0.5,0.1-0.7,0c-8-5.1-16-10.1-24-15.3
		c-7-4.5-13.8-9.2-20.7-13.8c-8.1-5.5-15.9-11.4-23.8-17.2c-4.3-3.2-8.5-6.7-12.7-10.1c-4.6-3.7-9-7.6-13.3-11.6
		c-3.4-3.1-6.6-6.5-9.9-9.8c-3.3-3.4-6.3-7-8.9-10.9c-5.8-8.7-10.4-18.2-15.1-27.5c-0.1-0.3-0.2-0.6,0.3-0.9c0.6,1,1.3,2.1,2,3.1
		c2.5,4.3,4.9,8.6,7.5,12.8c3,4.8,6.5,9.2,10.2,13.5c0.8,0.9,1.6,2,3.4,2.6c-0.6-1.3-1-2.1-1.3-2.9c-4.2-8.3-8.3-16.5-11.7-25.2
		c-2.7-6.9-5.2-13.9-5.6-21.4c-0.1-2.4,0.2-4.8,1.9-6.9c1.6-1.9,3.2-3.8,5.1-5.4c4-3.4,7.6-4,12-1.2c2.7,1.7,4.5,4,6.3,6.5
		c2.2,3.1,4.1,6.5,5.7,10c2.4,5.1,5.2,9.9,8.3,14.5c0.5,0.8,0.8,1.8,1.8,2.2c4.6,6.8,8.7,13.9,13.6,20.4c3.5,4.7,7.2,9.3,11.1,13.8
		c4.4,5,9,10,13.8,14.6c0.6,0.5,1,1.3,1.8,1.5c0.4-0.2,0.4-0.6,0.2-0.8c-7.3-8.2-13-17.5-19-26.6c-6.6-10-12.9-20.2-19-30.4
		c-2.3-3.9-4.6-7.9-6.6-11.9c-1.6-3.1-2.9-6.4-3.9-9.8c-0.1-0.4-0.1-1-0.1-1.4c0.9,0.4,1.3,1.1,1.7,1.9c1.8,3.6,3.6,7.1,5.5,10.6
		c3.1,5.8,6.4,11.4,9.9,16.9c3.6,5.6,7.4,11.1,11.6,16.3c4.4,5.5,8.8,10.9,13.8,15.8c2.8,2.7,5.5,5.5,8.5,8.1
		c3.8,3.4,7.9,6.4,11.5,10C258.7,452.8,259.3,452.9,259.9,452.9z"/>
	<path class="st4" d="M203.8,403.4c-1-0.4-1.3-1.4-1.8-2.2c-3.1-4.7-5.9-9.5-8.3-14.5c-1.6-3.5-3.5-6.8-5.7-10
		c-1.8-2.5-3.6-4.8-6.3-6.5c-4.4-2.8-8-2.2-12,1.2c-1.9,1.6-3.5,3.5-5.1,5.4c-1.7,2.1-2,4.5-1.9,6.9c0.4,7.5,2.9,14.5,5.6,21.4
		c3.4,8.7,7.5,16.9,11.7,25.2c0.4,0.8,0.7,1.6,1.3,2.9c-1.8-0.6-2.6-1.7-3.4-2.6c-3.7-4.3-7.2-8.7-10.2-13.5
		c-2.6-4.2-5-8.5-7.5-12.8c-0.6-1.1-1.3-2.1-2-3.1c-0.6,0.3-0.5,0.6-0.3,0.9c4.7,9.3,9.3,18.8,15.1,27.5c2.6,3.9,5.6,7.5,8.9,10.9
		c3.2,3.3,6.4,6.7,9.9,9.8c4.3,4,8.7,7.9,13.3,11.6c4.2,3.4,8.4,6.9,12.7,10.1c7.8,5.9,15.7,11.7,23.8,17.2
		c6.9,4.7,13.7,9.3,20.7,13.8c8,5.2,16,10.2,24,15.3c0.2,0.1,0.4,0.2,0.7,0c0.4-0.6-0.1-0.9-0.4-1.2c-1.4-1.4-2.8-2.8-4.2-4.3
		c-2.7-2.6-5-5.6-7.4-8.4c-0.2-0.2-0.3-0.4-0.4-0.6c-0.1-0.2-0.1-0.5,0-0.7c0.2-0.3,0.5-0.4,0.8-0.2c0.6,0.3,1.3,0.6,1.9,1
		c6.2,4.1,12.2,8.4,18.2,12.8c4,3,8.2,5.7,12.1,9c-8.6,0-17.3,0-25.9,0c-0.4-0.6-1-0.7-1.6-1c-11.7-5.7-22.9-12.4-33.7-19.6
		c-8.1-5.4-15.9-11.1-23.5-17.2c-5.5-4.4-10.9-9-16.2-13.7c-2.4-2.1-4.5-4.5-7-6.5c-3.4-2.8-6.4-6-9.5-9.1c-4.4-4.6-8.8-9.2-13-14
		c-7.6-8.8-15-17.7-21.8-27.1c-4.3-5.9-8.3-11.9-12.2-18c-1-1.6-0.9-2.2,0.4-3.6c3.7-3.7,7.4-7.5,11.2-11.2c1.1-1.1,2.4-2,3.6-3.1
		c2.5-2.3,4-5.1,5.2-8.2c1.6-4.1,3.4-8.1,6.1-11.6c2.1-2.7,4.8-4.6,7.5-6.6c3.3-2.4,6.7-4.6,10.1-6.9c0.6-0.4,1.1-0.9,1.9-0.8
		c0.5,0.4,0.4,0.9,0.4,1.4c0,1.3,0.1,2.6,0,3.8c-0.3,7,0.9,13.8,2.6,20.5c2.4,9.5,6.2,18.4,10.7,27.1
		C203.2,401.3,203.9,402.2,203.8,403.4z"/>
	<path class="st4" d="M141.9,405.3c-2.1,0.5-3.3,2.1-4.9,3.3c-3.4,2.7-6.7,5.7-10,8.5c-4.7,3.9-9.4,7.6-14.3,11.2
		c-5.3,3.9-10.9,7.2-16.6,10.4c-1.7,1-3.2,2.1-4.5,3.6c-1,1.1-0.9,1.6,0.4,2.4c1.7,1,3.6,1.4,5.4,1.8c6.6,1.2,13.1,2.8,19.5,4.6
		c4.4,1.2,8,3.9,10.9,7.4c5.1,6.2,7.9,13.5,10.4,21.1c2,6.4,3.4,12.9,4.4,19.5c0.7,4.6,1.3,9.3,1.6,14c0.1,2.1,0.4,4.3,0.4,6.7
		c-1.2-1.4-1.3-2.9-1.8-4.2c-3.4-9.9-7.6-19.5-12.4-28.8c-3.6-6.9-7.8-13.6-12.6-19.7c-4-5.1-8.7-9.6-14.3-12.9
		c-3.5-2.1-7.4-3.5-11.5-3.7c-3.6-0.1-7,1.3-10.1,3.3c-3.9,2.6-6.9,6.1-9.7,9.8c-4.7,6.4-8.2,13.4-11.4,20.7
		c-3.3,7.6-6.2,15.4-8.7,23.3c-1.9,6-3.8,12-5.1,18.2c-1.9,0-3.8,0-5.7,0c2.3-7.5,5-15,7.8-22.3c1.9-4.9,3.7-9.9,5.6-14.7
		c1.8-4.6,3.8-9.1,5.7-13.7c2.9-6.9,6.2-13.5,9.6-20.1c3.5-6.9,7.9-13.1,13.3-18.6c8.7-8.8,18.6-15.9,29-22.5
		c7.4-4.6,15-8.9,22.7-12.8c0.4-0.2,0.7-0.4,1.1-0.5c1.9-0.9,2.1-0.8,3.3,1C140.4,402.8,141.1,404.1,141.9,405.3z"/>
	<path class="st4" d="M259.9,452.9c-0.7,0-1.2-0.1-1.8-0.6c-3.7-3.6-7.7-6.6-11.5-10c-2.9-2.6-5.7-5.4-8.5-8.1
		c-5-4.9-9.5-10.3-13.8-15.8c-4.2-5.2-8-10.7-11.6-16.3c-3.5-5.5-6.8-11.1-9.9-16.9c-1.9-3.5-3.7-7.1-5.5-10.6
		c-0.4-0.8-0.8-1.5-1.7-1.9c-1.4-1-1.4-2.6-1.8-4c-1.2-4.2-2.3-8.4-2.8-12.8c-0.3-2.5-0.8-5-0.7-7.6c0.1-1.1,0.3-2,0.9-2.9
		c5-6.8,11.3-12.1,19.2-15.2c0.7-0.3,1.4-0.3,2.1-0.3c1.1,3.2,2.2,6.5,3.1,9.7c0.3,1,0.1,2.1,0.2,3.1c0.1,2,0.1,4,0.2,5.9
		c-1.7,0.3-2.7,1.6-3.8,2.8c-3.7,4.1-6.8,8.5-7.8,14c-0.4,2.4-0.5,4.8,0,7.1c1.6,8.1,4.8,15.7,8.6,23c2.9,5.6,6.1,11,9.9,16.1
		c0.8,1,1.9,2,1.5,3.6c-0.1,0.5,0.4,0.8,0.7,1.2c2.5,2.4,4.8,5.1,7.1,7.7c2.9,3.3,6.2,6.2,9.1,9.5c5.4,6.2,11.5,11.7,17.2,17.7
		C259.1,451.9,259.7,452.3,259.9,452.9z"/>
	<path class="st4" d="M259,525.8c-0.4-1.6-1.9-2-3.1-2.8c-7.1-5-14-10.2-20.7-15.7c-4.3-3.5-8.7-7-12.9-10.6
		c-3.5-2.9-6.7-6.1-10.1-9.1c-6.5-5.9-13-11.8-19.1-18.1c-4.1-4.3-8.1-8.8-12.2-13.1c-0.5-0.6-0.8-1.2-0.7-1.9
		c1.3,0.8,2.3,2,3.3,3.1c4,4.6,8.2,8.9,12.8,12.8c0.6,0.5,1.1,1.1,1.7,1.7c4.3,4.3,8.9,8.1,13.5,12.1c7.4,6.5,15.3,12.4,23.2,18.3
		c6.7,4.9,13.6,9.4,20.7,13.6c4.9,2.9,9.8,5.7,14.7,8.5c0.5,0.3,1.2,0.5,1.3,1.3C267.3,525.8,263.2,525.8,259,525.8z"/>
	<path class="st4" d="M149.5,416.4c-1.1-0.1-2,0.3-3,0.7c-4.6,2-9.2,4-13.8,5.9c-0.8,0.3-1.7,1-2.8,0.1c0.6-0.9,1.1-1.9,1.9-2.6
		c3.9-4.1,7.3-8.6,10.4-13.3c0.1-0.2,0.4-0.3,0.6-0.4C145,410,147.3,413.2,149.5,416.4z"/>
	<path class="st0" d="M403.3,525.7c0.1-1.6,1.4-2.5,2.1-3.7c6.2-10,10.4-20.8,12.9-32.2c0.9-4,1.4-8.1,2-12.2
		c1.3-9.5,0.9-19.1,0.8-28.6c-0.1-4.5-1.2-8.9-2.3-13.4c-1.5-6.2-3.1-12.3-5.1-18.4c-0.6-1.7-1.6-3.3-1.7-5.2
		c7.8,4.1,15.1,8.8,22.5,13.6c6.1,3.9,12,8.2,17.7,12.6c3.8,2.9,7.2,6.1,8.9,10.7c1.1,2.8,2.2,5.6,3.2,8.5
		c2.9,8.9,5.5,17.9,7.7,27.1c0.2,0.7,0.4,1.3,0.6,2c-0.4-5.8-1.2-11.4-2-17.1c-0.8-5.6-1.9-11.3-2.5-17.3c0.5,0.4,0.6,0.5,0.7,0.6
		c2.7,6.9,5,14,7,21.1c2.1,7.3,3.8,14.8,5,22.3c0.5,3.4,1,6.8,1.2,10.2c0.2,3.6,0.2,7.3-0.3,11c-0.4,3.3-0.9,6.3-3.4,8.6
		c-24.5,0-49.1,0-73.6,0C404.3,525.8,403.8,525.8,403.3,525.7z"/>
	<path class="st4" d="M478.4,525.8c2.6-2.3,3.1-5.3,3.4-8.6c0.4-3.7,0.5-7.3,0.3-11c-0.2-3.4-0.7-6.8-1.2-10.2
		c-1.2-7.6-2.9-15-5-22.3c-2-7.1-4.3-14.2-7-21.1c0-0.1-0.2-0.2-0.7-0.6c0.6,6.1,1.6,11.7,2.5,17.3c0.8,5.6,1.6,11.3,2,17.1
		c-0.2-0.7-0.4-1.3-0.6-2c-2.2-9.1-4.8-18.2-7.7-27.1c-0.9-2.9-2.1-5.7-3.2-8.5c-1.7-4.6-5.1-7.8-8.9-10.7
		c-5.8-4.4-11.7-8.6-17.7-12.6c-7.4-4.8-14.7-9.5-22.5-13.6c-1-1.1-1.4-2.5-2-3.8c-1.1-2.5-2.4-4.9-3.6-7.3c-0.4-0.8-0.9-1.5-1-2.4
		c0.4-0.4,0.7-0.2,1.1,0c3.5,1.6,6.9,3.3,10.4,4.9c6.8,3.1,13.6,6.4,20.2,9.9c7.8,4,15.4,8.4,22.3,13.8c2.3,1.8,4.5,3.6,6.6,5.5
		c4.6,4.4,8.1,9.6,11.2,15.1c5.2,9.1,9.1,18.8,12.7,28.6c3.6,9.9,6.9,19.9,9.8,30c1.7,5.9,3.1,11.9,4.9,17.7
		c0.2,0.5,0.1,1.1,0.2,1.7C495.9,525.8,487.2,525.8,478.4,525.8z"/>
	<path class="st5" d="M380.9,189.4c1.1-1.5,2.4-2.7,3.9-3.8C384.4,187.7,383.1,189,380.9,189.4z"/>
	<path class="st6" d="M237.4,195.6c0.1-0.1,0.2-0.1,0.3-0.1c0.2-0.1,0.5-0.1,0.7-0.2c1.8-1.6,3.9-2.4,6.3-2.7c2.9-0.4,5.9-0.5,8.7-1
		c1.9-0.3,3.8-0.2,5.7-0.5c3.5-0.7,7.1-0.9,10.6-1.2c3.9-0.3,7.7-0.8,11.6-1.2c3.4-0.3,6.8-0.6,10.1-1.3c3.8-0.8,7.7-1.3,11.5-1.8
		c3.6-0.5,7.2-1,10.9-1.1c2.7-0.1,5.4,0,8.2,0c5.4-0.1,10.6,0.8,15.7,2.6c5.8,2.1,10.2,5.8,13,11.3c3.2,6.1,3.8,12.7,4.8,19.3
		c0.7,4.8,1,9.7,3.5,14c0.2,0.4,0.4,0.9,0.4,1.4c-2.2-0.8-4.3-1.7-6.6-2.1c-3.8-0.7-7.5-0.3-11.2,0.2c-7.8,1.1-15.5,3-23,5.5
		c-2.6,0.9-3.9,2.9-5,5.1c-0.4,0.9-0.3,1.7,0.8,2.2c-0.2,0.3-0.3,0.6-0.6,0.8c-3,2.2-5.4,5-8,7.6c-3,3.1-5.3,6.6-6.1,10.9
		c-0.9,4.9-1.4,9.8-1.1,14.7c0.2,2.3,0.4,4.6,0.4,6.9c0,1.6,0.3,3.2,0.9,4.7c-0.3-1.5,0.4-2.8,0.6-4.2c0.3-2.9,0.6-5.8,1.1-8.7
		c0.3-1.5,0.4-3,1.1-4.4c0.6-1.2,1.4-1.8,2.8-1.8c1.8,0.1,3.5,0.4,5.2,0.8c3.3,0.8,6.6,0.7,10,0.5c-2.8-0.7-5.6-1.1-8.2-2.1
		c-0.8-0.3-1.6-0.6-2.3-1.2c-1.6-1.5-1.1-3.7,1.2-4.6c2.6-0.3,5.1-1.4,7.7-1.5c2.4-0.4,4.6,0.9,7,0.5l-0.1,0
		c0.2,0.2,0.4,0.3,0.6,0.5c0.8,0,1.6,0.1,2.3,0.1c2.4-0.1,4.9,0.4,7.2-0.5c0.2,0,0.5,0,0.7,0c2.1-0.4,4.1-1.4,6.1-2
		c1.6,0,2.9-0.5,4.2-1.4c0.1-0.1,0.2-0.2,0.4-0.2c1.5,0.3,3.1,0.1,4.6,0.1c0-1.3-0.9-1.9-1.2-2.8c0.7-0.1,1.3-0.1,2.3-0.2
		c-1.6-1.3-3.4-2-4.1-3.6c-0.8-2-2.4-2.9-4.3-3.5c-1.7-0.6-3.5-1.1-5.3-1.4c-2-0.4-4-0.1-5.9-0.6c-1.5-0.4-3-0.3-4.5,0
		c-2,0.4-4.1,0.2-6.1,0.7c-0.4,0.1-1,0.2-1.2-0.4c-0.1-0.4,0.3-0.7,0.5-1c0.5-0.8,1.7-0.8,2-1.9c-0.7-0.6-1.5-0.7-2.2-0.9
		c-0.4-0.2-0.2-0.5-0.1-0.8c7.7-1.4,15.3-2.8,23-4.4c5.9-1.2,11.5-0.5,16.9,2.3c0,0.6,0,1.1,0.1,1.7c0.9,5.3,1.4,10.5,1.4,15.9
		c0,2.2,0,4.3,0,6.5c0,0.8,0.1,1.5,0.6,2.3c2.1,3.6,3.8,7.4,5.2,11.3c1,2.8,1.6,5.7,1.9,8.6c0.2,2.5,1,4.9,0.5,7.4
		c-0.4,2-0.5,4.1-0.8,6.1c-1.3,6.8-3.9,12.9-8.2,18.3c-0.3,0.4-0.9,0.7-0.6,1.5c0.3,0,0.6,0.2,0.9,0.1c2-0.1,3.4-1.7,5.2-2
		c0.3,0.3,0.3,0.6,0.3,0.9c0,0.4,0,0.8-0.1,1.2c-1,5-2.6,9.9-4.8,14.5c-3.2,6.8-6.7,13.4-11,19.6c-3.1,4.6-6.4,9-10.5,12.6
		c-3,2.6-6.1,5.1-9.1,7.7c-3.8,3.4-7.7,6.7-11.8,9.7c-3.4,2.5-6.9,5-11.1,6c-5,1.2-10.1,1.9-15.3,2.2c-2.4,0.2-4.8,0-7.2,0
		c-0.8,0-1.6-0.3-2.2,0.5c-6.6-1-12.6-3.7-18.2-7.2c0-0.8-0.5-1.3-1.1-1.7c-2.2-1.4-3.9-3.3-5.8-5c-4.7-4.2-9-8.8-13.1-13.6
		c-1.3-1.6-2.8-3.1-4-4.7c-1-1.4-1.9-3-3.5-4c-0.4,0.6,0,0.9,0.1,1.3c0.6,1.9,1.1,3.8,1.7,5.7c0.1,0.5,0.4,1-0.2,1.3
		c-0.5,0.3-0.9,0-1.3-0.3c-0.7-0.7-1.5-1.4-2.1-2.3c-1.8-2.3-3.4-4.8-5-7.3c-5-7.4-9.1-15.2-11.7-23.7c-1.2-4-2.3-8.1-2.5-12.3
		c0-0.7-0.4-1.8,0.5-2.2c0.9-0.4,1.3,0.6,1.9,1.1c1.5,1.1,3,1.9,5.3,1.3c-1-1.3-1.8-2.4-2.7-3.5c-4.6-5.9-6.7-12.6-7-19.9
		c-0.1-3,0.5-6,1.1-9c1.4-7,3.7-13.8,6.3-20.5c0.8-2.1,1.7-4.2,1.2-6.5c-1.2-5.5-1.1-11-1.9-16.6c4-2.5,8.3-4,13.1-3
		c3.7,0.8,7.5,1.3,11.3,2.1c3.4,0.7,6.9,1.1,10.2,2.3c-0.6,0.7-1.5,0.5-2.2,0.5c-3.6-0.1-7.1,0.4-10.6,1c-0.9,0.2-1.9,0.3-2.6,1
		c-4.5,0.7-7.8,3.2-10.5,6.7c-1.4,0.8-1.2,2.3-1.7,3.5c-0.4,0.9,0,1.2,0.8,1.2c1.4,0,2.9,0,4.3,0c1.3,0.4,2.6,0.7,3.9,1.1
		c0.7-0.1,1.4,0.3,2,0.5c1.8,0.7,3.6,1.5,5.7,1.4c3.7,1,7.3,0.6,11,0c2.3,0,4.4-1,6.7-1c2.4,0.6,4.9,0.8,7.2,1.6
		c1.6,2.4,1.3,3.5-1.1,5c-1.4,0.8-2.8,1.5-4.3,2.1c-1.3,0.6-2.8,0.7-4,1.6c0.6,0.3,1.1,0.2,1.5,0.1c3.5-0.6,6.8-1.5,10.1-2.7
		c1-0.4,2-0.6,3-0.6c1.8,0.1,2.6,0.6,3.2,2.3c1.2,3.3,2,6.7,2.9,10.1c1,3.5,0.9,7.2,1.6,11.2c1-3.2,0.9-6.1,1.2-8.9
		c0.3-3.8-0.3-7.6-0.9-11.4c-0.6-4.1-1.2-8.1-3.9-11.5c-1.4-1.8-2.7-3.8-4.3-5.4c-2.7-2.8-6-4.9-9.1-7.3c1.5,0.2,3,0.4,4.5,0.5
		c1.4,0.1,1.8-0.5,1.3-1.7c-1.1-2.7-2.6-4.7-5.7-5.7c-9.9-3-19.9-5.6-30.3-6.4c-5-0.4-9.9,0.1-13.7,4.1c-0.5-0.5-0.4-1.2-0.3-1.8
		c0.4-1.9,0.8-3.7,1.2-5.6c1.6-7.6,4.3-15,6.3-22.5c0.5-1.8,0.9-3.7,1.7-5.5C233.9,199.9,235.5,197.7,237.4,195.6z M326.2,310.8
		c-0.1,1.2,0.1,2.2,0.9,3.1c2.2,2.2,4.3,4.6,6.8,6.5c0.1,0.1,0.1,0.3,0.3,0.4c4.5,3.6,6.6,8.2,6.5,14c0,0.3,0,0.6,0,1
		c0,0.3-0.1,0.7,0.3,1c1-1.9,0.5-3.8,0.7-5.7c0.5-0.1,0.9-0.4,0.9-0.9c0-1,0.1-1.9-0.1-2.9c-0.4-2.4-0.4-2.4,2.1-2.5
		c0.4,0,0.8,0,1.2,0c1.8,0,3.2-1,4.6-2.1c-1.6-0.1-3.1-0.6-4.7-0.7c-2.3-0.2-4.6-0.6-6.6-1.7c-0.7-0.4-1.4-0.7-2.3-0.6
		c-1.5-1.6-3.1-3.2-4.6-4.9c-1.2-1.4-2.6-2.7-3.5-4.2c-2.4-4.5-5.5-8.4-9.2-11.8c-0.9-0.8-1.6-2.5-3.4-2.1c-0.5-0.7-1-1.4-1.9-1.5
		l0,0c-0.2-0.2-0.3-0.3-0.5-0.5c-0.8-0.5-1.5-1-2.8-0.8c1.7,2.3,2.8,4.6,3.4,7.2c0.6,2.7,0.1,4.9-1.7,6.8c-0.4,0.5-0.9,0.9-0.9,1.6
		c-1.6,0-3.2,0.1-4.8,0.1c-0.5-0.9-1.6-1-2.3-1.6c-0.5-0.5-1-0.2-1.4,0.2c-0.5,0.4-0.9,0.9-1.4,1.4c-1.9,2.2-4.4,3.5-7.1,4.1
		c-2.8,0.6-5.3,0.1-7.5-1.9c-1.4-1.3-2.2-2.9-3.2-4.6c-1.8,1.6-3.8,1.7-5.9,1.4c-3-0.4-6.9-2.5-6.2-6.4c0.1-0.7,0.3-1.6-0.5-2.2
		c0.3-1.6,1.5-2.8,2-4.3l0,0c0.2-0.2,0.3-0.3,0.5-0.5c0.4-0.2,0.6-0.6,0.3-1c-0.4-0.6-0.8-0.2-1.2,0c-5.8,2.7-10.6,6.8-14.7,11.7
		c-3.1,3.7-5.7,7.8-8.7,11.6c-1.8,2.3-4,3.8-6.8,4.5c-1,0.2-1.9,0.5-2.9,0.7c1.9,0.1,3.7,0.6,5.5-0.1c0.7-0.3,1.4,0,2,0.4
		c0,0.4-0.1,0.7-0.5,0.9c-0.8,0-1.2,0.6-1.6,1.2c-0.6,1.2-1,2.5-1.3,3.8c-0.8,3.6,0.6,7.3,3.7,9.5c0.4-1.1-0.1-1.9-0.8-2.6
		c0-0.6,0-1.3,0-1.9c0.7-1.3,0.7-2.6,0-3.9c0-0.3,0-0.6,0-0.9c0.5-0.1,0.8-0.4,1-0.9c0.4-1.4,1.3-2.6,2.1-3.8
		c0.6-0.9,1.2-1.7,1.8-2.5c0.5-0.8,0-1-0.6-1.1c2.4-3.7,5.4-7,8.7-10.1c2.1-1.2,3.1-3.5,5.2-5.2c0.2,1.6,0.1,2.9,0.6,4.2
		c0.9,1.9,2.6,2.7,4.3,1.9c1.3,0.3,2.4,1.2,3.8,1c0.8,0.8,1.6-0.2,2.5,0c3,0.9,6,1.6,8.6,3.5c1.2,0.8,2.3,1.7,3.5,2.5
		c3.8,2.5,8.6,2.2,12-0.6c3.7-3.1,7.9-5.3,12.9-5.5c1.1-0.1,2.9,0,3.2-1.9c0.2-0.4,0.5-0.7,0.9-0.9c1.3-0.5,1.5-0.8,1-1.9
		c0-0.3,0.1-0.6,0.1-0.9c1.2-0.8,1.2-1.1,0.3-2.4c0-0.3,0-0.7,0-1c1.2,0,1.8,0.9,2.5,1.7c0.9,1.1,1.7,2.3,2.6,3.3
		C324.6,309.4,325,310.5,326.2,310.8L326.2,310.8z M320.9,342c0.2-0.1,0.3-0.2,0.5-0.3c2.4-1.4,4.8-2.7,7.7-3.2
		c0.5-0.1,1-0.4,1.5-0.7c0.4-0.2,1-0.4,0.8-1c-0.2-0.6-0.7-0.4-1.2-0.4c-2.7,0.3-5.3,1-7.7,2.3c-5.4,0-10.7-1.1-16.1-1.9
		c-3-0.4-6.3-0.7-9.2,0.4c-2.5,1-4.9,1.7-7.4-0.1c-0.1,0-0.2,0-0.2,0c-3.5-0.9-7-0.6-10.5-0.3c-4.2,0.3-8.3,1.4-12.5,1.3
		c-0.6,0-1.3-0.1-1.8,0.4c-0.3-0.1-0.6-0.1-0.9-0.2c-0.2-0.1-0.4-0.2-0.5-0.3c-2.5-1.2-4.9-2.3-7.4-3.5c-0.7-0.3-1.5-0.6-2.2-0.9
		c-0.4-0.1-1-0.2-1.2,0.4c-0.2,0.4,0.2,0.7,0.5,1c0.9,0.9,2,1.4,3.1,1.8c1.2,0.5,2.4,0.8,3.4,1.7c0.2,0.4,0.3,0.7,0.5,1.1
		c2.6,3.6,5.9,6.5,9.3,9.2c3.3,2.6,6.8,4.7,11,5.4c4.1,0.6,8.2,1.3,12.3,1c2.2-0.1,4.4-0.1,6.6-0.4c4.9-0.6,9.1-2.3,13.1-5.1
		c2.2-1.6,4.2-3.3,6.3-5C319.5,344.2,320.8,343.5,320.9,342L320.9,342z M234.6,283.9c-0.6,0-1.3,0-1.9,0c-1.8,0-3.4,0.3-4.5,2.1
		c-0.6,0.9-1.5,1.7-2.6,2.1c-1.1,0.4-1.7,1.4-2.1,2.4c-1.7,4.3-1.4,8.7,0.6,12.8c3.3,6.8,8.5,10.7,16.5,10.4
		c4.7-0.2,8.9-4.4,9.7-7.7c1.2-4.9,0.9-9.7-1.9-14C245.1,287.1,240.9,283.8,234.6,283.9z M361.7,299.2c0-0.6,0-0.9,0-1.2
		c0.2-2.8-0.6-5.3-1.9-7.8c-0.5-0.9-1-1.6-2-1.9c-1.9-0.4-3.2-1.7-4-3.2c-1-1.7-2.6-2.1-4-2c-3.4,0.2-6.5,1.5-8.5,4.5
		c-3.1,4.7-4.2,9.7-2.8,15.2c0.8,3.3,2.2,6.3,4.9,8.5c2.1,1.7,4.5,2.9,7.2,2.7c3.4-0.2,6.2-1.7,8.3-4.6
		C361,306.3,361.9,302.7,361.7,299.2z"/>
	<path class="st7" d="M349.7,387c4.8,8.1,9.3,16.4,12.1,25.4c0.5,1.5,0.8,3.1,1.1,4.7c0.3,1.9,0.3,3.8-0.3,5.7
		c-4,11-10.7,19.9-20.9,26c-5,3-10.5,4.1-16.3,3.8c-8.2-0.4-16.4-1.5-24.5-3.1c-13.9-2.7-27.4-6.8-40.6-11.9
		c-12.1-4.7-21.8-12.2-29.7-22.3c-9-11.5-16.3-24-20.9-38c-1.1-3.3-1.9-6.8-1.4-10.4c0.8-5.3,3.7-9.4,7.4-13.1
		c0.8,0.2,0.9,0.8,0.9,1.5c0.2,3,0.3,6,0.6,9c0.6,5.3,0.6,10.7,1.4,16c0.2,1.6,0.4,3.2,0.7,5.3c0.5-2.5,0.8-4.5,1.7-6.4
		c1.4,4.5,2.9,8.9,4.5,13.3c1.6,4.4,2.8,8.9,5.1,13c0.5-0.3,0.6-0.5,0.5-0.7c-0.4-1.9-0.6-3.9-1.1-5.8c-1.5-6.3-2.7-12.6-4-18.9
		c-0.5-2.3-0.8-4.7-1.1-7.1c-0.1-0.5-0.3-1.3,0.3-1.5c0.8-0.3,1.1,0.5,1.4,1c0.7,1.2,1.4,2.3,2,3.5c2.6,5.2,5.1,10.5,7.7,15.7
		c0.7,1.3,1.2,2.9,2.6,3.7c-1-4.4-3-8.5-4.7-12.7c-1.7-4.2-3.8-8.3-5.2-12.6c0.9-0.3,1.2,0.2,1.5,0.5c2.3,2.2,4.5,4.5,7,6.5
		c3.7,3,7.4,6.1,11.2,8.9c4,3,8.1,5.7,12.3,8.3c5.2,3.1,10.7,5.2,16.8,5.7c3.6,0.3,7.3,0.5,10.9,1c3.6,0.5,7.1,1,10.7,0.9
		c0.6,0,1.3,0,1.9,0.2c3.7,0.7,7.4,0.3,10.7-1.5c9.1-4.8,17.8-10.3,26.5-15.8c1.3-0.8,2.6-1.7,4.2-2.3c0.4,7.9,2.4,15.3,4.3,22.7
		c0.2-0.9,0.2-1.8,0.2-2.8c0-0.7-0.2-1.5,0.5-2c0.9,0,0.5-0.7,0.4-1c-0.2-3.3,0.5-6.5,0.6-9.7C348.8,388.9,348.9,387.8,349.7,387z"
		/>
	<path class="st8" d="M359.2,233.2c0-0.5-0.1-0.9-0.4-1.4c-2.5-4.3-2.8-9.2-3.5-14c-0.9-6.6-1.6-13.3-4.8-19.3
		c-2.9-5.5-7.2-9.2-13-11.3c-5.1-1.8-10.3-2.7-15.7-2.6c-2.7,0.1-5.4-0.1-8.2,0c-3.7,0.1-7.3,0.6-10.9,1.1c-3.8,0.5-7.7,1-11.5,1.8
		c-3.4,0.7-6.8,1-10.1,1.3c-3.9,0.3-7.7,0.8-11.6,1.2c-3.5,0.3-7.1,0.5-10.6,1.2c-1.9,0.4-3.8,0.3-5.7,0.5c-2.9,0.4-5.8,0.6-8.7,1
		c-2.4,0.3-4.5,1-6.3,2.7c-0.2,0.1-0.4,0.2-0.7,0.2c-0.5-0.7-1.4-0.1-2.1-0.7c9.9-5.7,20.4-10.2,31.1-14.1c-0.8-1.3-2.2-1.5-3.1-2.7
		c3.6,0.7,7.1,1.3,10.5,1.9c2.7,0.4,5.4,0.8,8.1,1.2c5.3,0.6,10.5-0.1,15.5-2.1c4.2-1.6,8.5-3.2,12.7-5.1c0.8-0.3,1.5-0.8,2.7-0.9
		c-0.4,1.1-1.6,1.6-2.1,2.9c4-0.7,7.8-0.5,11.6-0.8c4.5-0.3,9.1-0.5,13.6,0.2c5,0.8,9.4,2.9,13.6,6.3c-1.3,0.6-2.6,0.3-3.6,1.1
		c2.6,1.6,5.1,3,7.6,4.6c8.2,5.2,13.3,12.7,16.5,21.7c3.4,9.6,6.1,19.3,8.4,29.2c1.1,5,1.3,10.1,1.3,15.2c-0.3,0.3-0.4,0.7-0.4,1.1
		c-0.1,5.4-0.9,10.8-1.5,16.2c-0.9,7.8-2,15.6-3.2,23.4c-1.9,12.3-4.2,24.5-7.4,36.5c-2.3,8.7-5.6,17-10.8,24.4
		c-4.6,6.5-9.9,12.3-16,17.4c-2.7,2.3-5.2,4.8-7.8,7.1c-3.1,2.8-6.2,5.5-9.6,7.9c-4.9,3.6-10.5,5.3-16.3,6.7
		c-3.7,0.9-7.6,1.3-11.4,0.9c-3.6-0.3-7.3-0.5-10.7-1.9c0.6-0.7,1.5-0.5,2.2-0.5c2.4,0,4.8,0.1,7.2,0c5.2-0.3,10.3-1,15.3-2.2
		c4.2-1,7.7-3.4,11.1-6c4.1-3.1,7.9-6.4,11.8-9.7c3-2.6,6.1-5.1,9.1-7.7c4.2-3.6,7.4-8,10.5-12.6c4.2-6.2,7.7-12.8,11-19.6
		c2.2-4.6,3.8-9.4,4.8-14.5c0.1-0.4,0.1-0.8,0.1-1.2c0-0.3,0-0.6-0.3-0.9c-1.8,0.3-3.3,1.9-5.2,2c-0.3,0-0.6-0.1-0.9-0.1
		c-0.3-0.8,0.3-1.1,0.6-1.5c4.4-5.4,7-11.5,8.2-18.3c0.4-2,0.4-4.1,0.8-6.1c0.5-2.5-0.3-4.9-0.5-7.4c-0.2-2.9-0.9-5.8-1.9-8.6
		c-1.4-3.9-3-7.7-5.2-11.3c-0.4-0.7-0.6-1.4-0.6-2.3c0-2.2,0-4.3,0-6.5c0-5.3-0.5-10.6-1.4-15.9c-0.1-0.5,0-1.1-0.1-1.7
		c1.3,0.6,2.7,1.1,4.5,1.9c-0.5-1.3-0.9-2.3-1.2-3.2C363.7,236.7,361.5,234.9,359.2,233.2z"/>
	<path class="st8" d="M237.4,195.6c-1.9,2.1-3.5,4.3-4.7,6.9c-0.8,1.8-1.2,3.6-1.7,5.5c-2,7.5-4.6,14.9-6.3,22.5
		c-0.4,1.9-0.8,3.7-1.2,5.6c-0.1,0.6-0.2,1.3,0.3,1.8c-1.4,1.9-2.4,4-2.7,6.4c0.8,0.1,1.3-0.5,1.9-0.6c0.7,5.5,0.7,11.1,1.9,16.6
		c0.5,2.3-0.4,4.4-1.2,6.5c-2.6,6.7-4.9,13.5-6.3,20.5c-0.6,2.9-1.2,5.9-1.1,9c0.3,7.4,2.4,14.1,7,19.9c0.9,1.1,1.7,2.2,2.7,3.5
		c-2.2,0.6-3.8-0.2-5.3-1.3c-0.6-0.4-1-1.5-1.9-1.1c-0.9,0.4-0.5,1.4-0.5,2.2c0.3,4.2,1.3,8.3,2.5,12.3c2.6,8.6,6.7,16.4,11.7,23.7
		c1.6,2.4,3.2,4.9,5,7.3c0.6,0.8,1.4,1.5,2.1,2.3c0.4,0.4,0.8,0.6,1.3,0.3c0.5-0.3,0.3-0.8,0.2-1.3c-0.6-1.9-1.2-3.8-1.7-5.7
		c-0.1-0.4-0.4-0.7-0.1-1.3c1.5,1,2.4,2.6,3.5,4c1.3,1.7,2.7,3.2,4,4.7c4.1,4.8,8.4,9.4,13.1,13.6c1.9,1.7,3.6,3.6,5.8,5
		c0.6,0.4,1.1,0.9,1.1,1.7c-2.5-0.7-4.5-2.4-6.7-3.7c-7.4-4.4-14.4-9.4-20.9-15.1c-5.1-4.5-9.4-9.8-12.9-15.6
		c-5.1-8.4-7.9-17.7-10.3-27.2c-1.7-6.9-3.1-13.8-4.3-20.8c-1.1-6.4-2.1-12.9-2.9-19.3c-0.4-3.5-1.3-7.1-1-10.7l0,0
		c1.1-0.1,1.1-0.6,0.7-1.4c0-1.8,0.4-3.5,0.1-5.3c0.2-1.4,0.1-2.9-0.1-4.3c-0.8-9.2-0.1-18.2,3-26.9c0.5-1.4,1-2.9,2-4.1
		c2.6-3.4,3.5-7.5,4.4-11.5c0.7-3.5,1.4-7,2.4-10.5c1.2-4.1,3.6-7.3,7.1-9.6C230.3,198.2,233.7,196.6,237.4,195.6z"/>
	<path class="st8" d="M347.8,400.6c-0.7,0.5-0.4,1.3-0.5,2c0,0.9,0,1.8-0.2,2.8c-1.9-7.5-3.9-14.9-4.3-22.7
		c-1.6,0.6-2.9,1.5-4.2,2.3c-8.7,5.5-17.4,11-26.5,15.8c-3.3,1.7-6.9,2.2-10.7,1.5c-0.6-0.1-1.3-0.2-1.9-0.2
		c-3.6,0.1-7.1-0.4-10.7-0.9c-3.6-0.5-7.3-0.7-10.9-1c-6.1-0.5-11.6-2.6-16.8-5.7c-4.2-2.5-8.3-5.3-12.3-8.3
		c-3.8-2.9-7.5-5.9-11.2-8.9c-2.5-2-4.7-4.3-7-6.5c-0.3-0.3-0.6-0.8-1.5-0.5c1.5,4.3,3.6,8.4,5.2,12.6c1.6,4.2,3.6,8.2,4.7,12.7
		c-1.5-0.9-2-2.4-2.6-3.7c-2.7-5.2-5.2-10.4-7.7-15.7c-0.6-1.2-1.3-2.4-2-3.5c-0.3-0.5-0.7-1.3-1.4-1c-0.6,0.2-0.4,1-0.3,1.5
		c0.3,2.4,0.6,4.7,1.1,7.1c1.3,6.3,2.5,12.6,4,18.9c0.4,1.9,0.7,3.9,1.1,5.8c0,0.2,0,0.5-0.5,0.7c-2.2-4.1-3.5-8.6-5.1-13
		c-1.6-4.4-3.1-8.8-4.5-13.3c-0.9,1.9-1.2,3.9-1.7,6.4c-0.3-2.1-0.5-3.7-0.7-5.3c0.2-0.2,0.4-0.5,0.4-0.8c0-3.6,0.4-7.2,0.4-10.8
		c0.1-5.9,0.9-11.8,0.5-17.6c0.9-0.2,0.9,0.4,1.1,0.8c3.9,7,8.8,13.1,14.7,18.5c6.5,5.8,13.5,10.9,21,15.4c4.1,2.5,8.3,4.8,12.5,7
		c5.6,3,11.6,4.4,17.7,5.8c5,1.1,10,1.2,15,0.9c5.3-0.4,10.3-1.8,15.3-3.7c5.8-2.2,10.6-5.8,15.1-9.9c4.8-4.4,9.7-8.8,14.6-13.1
		c0.1-0.1,0.3-0.1,0.7-0.2c-0.3,4.7-1,9.3-0.9,14C346.9,391.2,347.3,395.9,347.8,400.6z"/>
	<path class="st8" d="M388.1,258.6c2.1-3.6,4.1-7.3,5.4-11.9c-2.1,2.3-3,4.7-5.2,6.3c2.4-5.8,3.7-11.9,4.7-18
		c1.3,0.8,1.2,2.3,1.2,3.5c0.2,5.1,0.9,10.2,0.5,15.3c-0.4,0.1-0.7,0.2-0.8,0.7c-1.4,4-1.3,7.9,0.4,11.7c-0.4,5.1-0.8,10.1-2.8,14.9
		c-2.5,2-3.1,4.9-3.4,7.9c-0.1,1.5-0.6,3.2,0.4,4.6c-0.1,0.7,0.2,1.4-0.5,1.9c-0.7-0.9-1.3-1.8-2-2.6c-1.7-1.9-3.2-3.9-5.7-4.7
		c0-2.9,0.6-5.8,1.1-8.6c1.3,0.7,2.3,0.2,3-1c0.8-1.3,1.5-2.7,1.7-4.2c0.6-3.7-0.3-5.4-3.3-6.4c0-1-0.1-2-0.1-3
		c0.2-0.9,0.5-1.7,1.2-2.3c0.7,0.1,1.2,0.4,1.7,0.8c1.8,1,2.3,0.7,2.4-1.4C388.1,261,388.1,259.8,388.1,258.6z"/>
	<path class="st8" d="M198.4,265.7c0.9,0.7,2.1,0.6,2.9,1.4c-3.3,1.2-4.2,2.9-3.5,6.1c0.3,1.5,0.9,2.8,1.8,4.1
		c1.4,1.9,1.3,1.9,3.6,1.4c1,1.5,0.3,3.2,0.8,4.8c0.5,1.4,0.4,2.9,0.6,4.4c-1.7-0.1-2.7,1-3.7,2.2c-1.2,1.5-2,3.3-3.6,4.6
		c-0.4-0.4-0.6-1-0.7-1.5c0.7-0.1,0.8-0.6,0.9-1.2c0.2-1.4-0.3-2.7-0.6-3.9c-0.7-2.5-1.1-5.3-3.8-6.8c-1.1-3.3-2.8-6.4-2.9-10.1
		c0-1.3-0.5-2.6-0.8-3.9c0.6-1.9,0.6-3.8,0.9-5.8C192.6,263.6,195.2,265.2,198.4,265.7z"/>
	<path class="st7" d="M380.3,288.2c2.5,0.8,4.1,2.8,5.7,4.7c0.7,0.8,1.4,1.7,2,2.6c-0.7,2.7-1.8,5.3-3,7.8c-1.7,3.5-3.8,3.1-6.7,1.5
		c-0.5-0.3-0.9-0.7-0.8-1.3C378.8,298.4,379.1,293.2,380.3,288.2z"/>
	<path class="st7" d="M197.4,294.5c1.6-1.2,2.4-3.1,3.6-4.6c1-1.2,2-2.2,3.7-2.2c0.7,4.7,1.4,9.4,2.1,14.1c0.2,1,0.7,2-0.6,2.7
		c-1.3,0.7-2.8,0.7-3.8-0.1c-0.5-0.4-1-0.9-1.3-1.4C199.6,300.3,198.2,297.6,197.4,294.5z"/>
	<path class="st7" d="M190.4,261.3c-0.3,1.9-0.4,3.9-0.9,5.8c-1-3.7-1.7-7.4-2.3-11.2c-0.9-6-1.9-11.9-1.7-18c0-0.2,0-0.5,0-0.7
		c0.1-4.2,0.7-4.7,4.7-4.5c0.5,1.4,0.8,2.8,1,4.3c-0.2,0.2-0.3,0.6-0.6,0.7c-2.2,1.1-2.8,3.1-2.8,5.3c0,2,0,4,0,5.9
		c0,0.7-0.2,1.5,0.6,1.9c0,1.3-0.1,2.7-0.1,4C188.3,257.2,189.3,259.3,190.4,261.3z"/>
	<path class="st7" d="M203.3,278.6c-2.3,0.6-2.3,0.6-3.6-1.4c-0.9-1.2-1.5-2.6-1.8-4.1c-0.7-3.2,0.2-5,3.5-6.1
		c0.4,0,0.7,0.2,0.9,0.5c-0.2,2.3,0.4,4.5,0.7,6.8C203.1,275.8,203.3,277.2,203.3,278.6z"/>
	<path class="st7" d="M382.8,268.1c3,1,3.9,2.7,3.3,6.4c-0.2,1.5-0.9,2.9-1.7,4.2c-0.7,1.1-1.7,1.7-3,1
		C381.8,275.7,382.1,271.9,382.8,268.1z"/>
	<path class="st9" d="M193.2,281c2.7,1.5,3,4.3,3.8,6.8c0.4,1.2,0.8,2.6,0.6,3.9c-0.1,0.6-0.2,1.1-0.9,1.2
		C195.3,289.1,193.9,285.1,193.2,281z"/>
	<path class="st9" d="M388.6,293.5c-1-1.5-0.6-3.1-0.4-4.6c0.2-2.9,0.9-5.8,3.4-7.9C390.9,285.3,389.9,289.5,388.6,293.5z"/>
	<path class="st7" d="M394.3,266.1c-1.7-3.9-1.8-7.8-0.4-11.7c0.2-0.4,0.4-0.6,0.8-0.7C395,257.9,394.6,262,394.3,266.1z"/>
	<path class="st5" d="M208.4,267.2c0.3,1.8-0.1,3.5-0.1,5.3c-0.5-0.1-0.9-0.3-1.2-0.8c-1.1-1.8-2.6-3-4.3-4.1c0.9-0.9,2-0.4,2.9-0.4
		C206.6,267.1,207.5,267.1,208.4,267.2z"/>
	<path class="st8" d="M207.6,273.8c-0.2-0.1-0.5-0.4-0.4-0.5C207.8,273.2,207.5,273.7,207.6,273.8
		C207.6,273.9,207.6,273.8,207.6,273.8z"/>
	<path class="st4" d="M389,390c-0.1,0-0.2-0.1-0.2-0.1C388.9,389.7,389,389.8,389,390C389,390,389,390,389,390z"/>
	<path class="st7" d="M388.1,258.6c0,1.2,0,2.4,0,3.6c-0.1,2.1-0.6,2.4-2.4,1.4c-0.5-0.3-1.1-0.7-1.7-0.8
		C384.9,261,386.8,260.1,388.1,258.6z"/>
	<path class="st2" d="M388.6,236.4c0-0.1,0.1-0.2,0.1-0.2C388.8,236.2,388.8,236.3,388.6,236.4C388.6,236.4,388.6,236.4,388.6,236.4
		z"/>
	<path class="st0" d="M370.8,440.4c1.2,3.6,1.7,7.4,2.4,11.2c0.7,3.7,0.8,7.4,1.3,11.1c0.3,2.3,0.7,4.7,0.7,7.1
		c0,1.2-0.4,2.6,0.7,3.6c0.1,0.1,0.1,0.5,0.1,0.7c-0.5,5.9-0.4,11.9-2.2,17.7c-1,3.1-2.2,6.2-3.2,9.3c-0.7,2.4-1.9,4.5-3.3,6.6
		c-2.9,4.2-5.6,8.5-8.4,12.8c-0.9,1.3-1.2,1.4-2.2,0.6c-8.2-5.8-16.7-11.2-25-16.8c-6.4-4.4-13.2-8.1-19.6-12.3
		c-6-3.9-11.6-8.3-17.2-12.9c-5.1-4.3-10.2-8.7-15.2-13.1c-3.4-3-6.6-6.3-9.8-9.4c-0.6-0.5-1.2-1.1-1.8-1.6c0.5-1,1.3-1.1,2.2-0.8
		c1.1,0.4,2.2,0.9,3.3,1.4c5.8,2.8,11.9,4.9,18,6.9c6.4,2.1,12.9,4,19.6,5.2c4.9,0.8,9.8,1.8,14.9,1.7c1.4,0,2.9,0,4.3,0
		c4.5-0.2,8.8-1,12.9-3c4.3-2.1,8.2-4.8,11.9-7.9c3.6-3,6.6-6.6,9.7-10.2C367,445.7,368.8,443,370.8,440.4z"/>
	<path class="st4" d="M370.8,440.4c-2,2.6-3.8,5.3-5.9,7.7c-3,3.6-6,7.1-9.7,10.2c-3.7,3.1-7.6,5.8-11.9,7.9c-4.1,2-8.4,2.8-12.9,3
		c-1.4,0-2.9,0-4.3,0c-5,0.1-9.9-0.8-14.9-1.7c-6.7-1.2-13.2-3-19.6-5.2c-6.1-2-12.2-4.1-18-6.9c-1.1-0.5-2.2-1-3.3-1.4
		c-0.9-0.4-1.7-0.2-2.2,0.8c-0.7-0.3-1.1-0.9-1.6-1.4c-4.3-4.3-8.6-8.5-12.8-12.8c-0.6-0.6-1.4-1.1-1.4-2.1c0,0,0,0,0,0
		c3.2,1.3,6.5,2.6,9.7,3.9c8.8,3.6,17.9,6.2,27.1,8.5c6.9,1.7,13.9,3.2,21,4.2c4,0.6,8,1.3,12.1,1.1c1.4-0.1,2.6,0.5,4,0.5
		c6.6-0.1,12.7-1.6,18.4-5c7.8-4.7,13.4-11.3,18-19.1c1.5-2.5,2.4-5.2,3.8-8.1C368.1,430,369.9,435.1,370.8,440.4z"/>
	<path class="st4" d="M252.2,438.5c-0.2-0.1-0.4-0.1-0.6-0.2C252,437.9,252.1,438.3,252.2,438.5L252.2,438.5z"/>
	<path class="st8" d="M188.5,250.8c-0.7-0.5-0.6-1.2-0.6-1.9c0-2,0-4,0-5.9c0-2.3,0.5-4.2,2.8-5.3c0.3-0.1,0.4-0.5,0.6-0.7
		c2.3,5.8,2.9,11.7,1.8,17.8c-1.8-2.3-1.7-5.2-2.9-7.8C189,248,189.2,249.6,188.5,250.8z"/>
	<path class="st2" d="M218.6,174.5c-0.2-0.1-0.5-0.4-0.3-0.5C218.8,173.8,218.5,174.3,218.6,174.5
		C218.6,174.5,218.6,174.5,218.6,174.5z"/>
	<path class="st2" d="M261.4,164.9c-0.1,0-0.2-0.1-0.2-0.1C261.2,164.6,261.3,164.7,261.4,164.9
		C261.4,164.9,261.4,164.9,261.4,164.9z"/>
	<path class="st5" d="M234.5,187c0.1-0.2,0.4-0.5,0.5-0.3C235.2,187.2,234.6,186.8,234.5,187C234.5,187,234.5,187,234.5,187z"/>
	<path class="st5" d="M216.2,209c0.1-0.1,0.1-0.1,0.2-0.2C216.4,208.9,216.3,209,216.2,209C216.3,209.1,216.2,209,216.2,209z"/>
	<path class="st5" d="M350.2,171.6c0,0.1-0.1,0.2-0.1,0.2C349.9,171.8,349.9,171.7,350.2,171.6C350.2,171.6,350.2,171.6,350.2,171.6
		z"/>
	<path class="st9" d="M234.6,283.9c6.3-0.1,10.5,3.2,13.7,8.1c2.8,4.4,3.1,9.2,1.9,14c-0.8,3.3-5,7.5-9.7,7.7
		c-8,0.3-13.2-3.7-16.5-10.4c-2-4.1-2.3-8.4-0.6-12.8c0.4-1.1,1-2,2.1-2.4c1.1-0.4,2-1.1,2.6-2.1c1.1-1.8,2.7-2.1,4.5-2.1
		C233.4,283.9,234,283.9,234.6,283.9z M229.7,297.3c0,4.4,2.4,8,6.4,9c3.5,0.8,7,0,8-4.6c0.8-3.7-1.5-8.3-5-10
		c-1.9-0.9-3.9-0.8-5.8-0.3C230.8,292,229.7,294.3,229.7,297.3z"/>
	<path class="st9" d="M361.7,299.2c0.2,3.6-0.7,7.1-2.9,10.3c-2,2.9-4.9,4.4-8.3,4.6c-2.7,0.2-5.1-1-7.2-2.7
		c-2.8-2.2-4.1-5.3-4.9-8.5c-1.4-5.5-0.3-10.6,2.8-15.2c2-3,5.1-4.3,8.5-4.5c1.5-0.1,3.1,0.3,4,2c0.9,1.5,2.2,2.8,4,3.2
		c1,0.2,1.5,1,2,1.9c1.3,2.4,2.1,5,1.9,7.8C361.7,298.2,361.7,298.5,361.7,299.2z M355.9,298.8c0.2-2-0.4-3.8-1.5-5.4
		c-2.1-3-5.7-4-8.5-1c-3,3.2-2.6,10,0.6,12.6c2.8,2.3,6.6,1.8,8.2-1.4C355.5,302.1,356.1,300.6,355.9,298.8z"/>
	<path class="st8" d="M311,263.8c-2.2,0.9-2.8,3-1.2,4.6c0.7,0.6,1.5,0.9,2.3,1.2c2.7,1,5.5,1.4,8.2,2.1c-3.4,0.2-6.7,0.3-10-0.5
		c-1.7-0.4-3.4-0.8-5.2-0.8c-1.4,0-2.2,0.6-2.8,1.8c-0.7,1.4-0.9,2.9-1.1,4.4c-0.5,2.9-0.8,5.8-1.1,8.7c-0.1,1.4-0.8,2.8-0.6,4.2
		c-0.6-1.5-0.9-3.1-0.9-4.7c0-2.3-0.2-4.6-0.4-6.9c-0.4-4.9,0.2-9.8,1.1-14.7c0.8-4.3,3.1-7.8,6.1-10.9c2.6-2.6,5-5.4,8-7.6
		c0.2-0.2,0.4-0.5,0.6-0.8c2.6-0.4,5.1-0.9,7.7-1.3c-0.1,0.3-0.3,0.6,0.1,0.8c0.7,0.3,1.5,0.4,2.2,0.9c-0.3,1.1-1.5,1.1-2,1.9
		c-0.2,0.3-0.6,0.6-0.5,1c0.2,0.6,0.8,0.5,1.2,0.4c2-0.5,4.1-0.3,6.1-0.7c1.5-0.3,3-0.4,4.5,0c1.9,0.5,3.9,0.2,5.9,0.6
		c1.8,0.4,3.5,0.9,5.3,1.4c1.8,0.6,3.4,1.5,4.3,3.5c0.7,1.6,2.5,2.3,4.1,3.6c-1,0.1-1.6,0.1-2.3,0.2c0,0,0,0,0,0
		c-0.2-0.2-0.3-0.3-0.5-0.5c-0.1,0-0.3,0-0.4,0c-1.2-1.5-2.6-2.8-4.3-3.8c-0.9-0.6-1.8-1.1-2.7-1.7c-0.9-0.5-1.6-1-2.7-0.8
		c-0.1,0-0.2,0-0.2-0.1c-4-1.5-8.1-1.5-12.2-0.8c-5.6,1-10.4,3.4-13.9,8c-0.5,0.7-1.3,1.4-1.1,2.3c0.2,0.9-0.2,1.4-0.5,2
		C311.7,262,311.4,262.9,311,263.8z"/>
	<path class="st10" d="M321.8,242.8c-2.6,0.4-5.1,0.9-7.7,1.3c-1.1-0.4-1.2-1.3-0.8-2.2c1.1-2.3,2.4-4.2,5-5.1
		c7.5-2.5,15.2-4.5,23-5.5c3.7-0.5,7.4-0.9,11.2-0.2c2.3,0.4,4.4,1.3,6.6,2.1c2.2,1.8,4.5,3.5,5.6,6.3c0.4,0.9,0.7,1.9,1.2,3.2
		c-1.8-0.7-3.1-1.3-4.5-1.9c-5.3-2.9-11-3.5-16.9-2.3C337.2,240,329.5,241.4,321.8,242.8z"/>
	<path class="st10" d="M223,243.6c-0.6,0.1-1.1,0.7-1.9,0.6c0.4-2.4,1.3-4.5,2.7-6.4c3.8-4,8.7-4.5,13.7-4.1
		c10.4,0.8,20.4,3.4,30.3,6.4c3,0.9,4.6,3,5.7,5.7c0.5,1.2,0.1,1.8-1.3,1.7c-1.5-0.1-3-0.3-4.5-0.5c-3.3-0.9-6.7-1.6-10.1-2
		c-3.3-1.1-6.8-1.5-10.2-2.3c-3.7-0.8-7.5-1.3-11.3-2.1C231.2,239.6,227,241.2,223,243.6z"/>
	<path class="st8" d="M257.6,245c3.4,0.4,6.8,1.1,10.1,2c3.1,2.4,6.4,4.5,9.1,7.3c1.6,1.7,2.8,3.6,4.3,5.4c2.7,3.4,3.3,7.5,3.9,11.5
		c0.6,3.8,1.2,7.6,0.9,11.4c-0.2,2.8-0.2,5.7-1.2,8.9c-0.7-4-0.7-7.6-1.6-11.2c-0.9-3.4-1.7-6.8-2.9-10.1c-0.6-1.7-1.4-2.2-3.2-2.3
		c-1.1,0-2.1,0.2-3,0.6c-3.3,1.2-6.7,2.2-10.1,2.7c-0.5,0.1-1,0.2-1.5-0.1c1.2-1,2.7-1.1,4-1.6c1.5-0.6,2.9-1.3,4.3-2.1
		c2.4-1.5,2.7-2.6,1.1-5c0.7-0.1,1.1-0.4,0.8-1.2c-0.3-0.8-1.1-1.3-0.8-2.3c0,0,0,0,0,0c0.2-0.4,1,0.4,0.7-0.1
		c-2.3-4.2-5.1-7.9-9.9-9.6c-3.2-1.1-6.5-1.5-9.8-1.8c-3.4-0.3-6.8,0-10.3,0c0.7-0.7,1.7-0.8,2.6-1c3.5-0.6,7-1.1,10.6-1
		C256.1,245.5,256.9,245.8,257.6,245z"/>
	<path class="st8" d="M271.4,299.8c0.8,0.6,0.6,1.5,0.5,2.2c-0.7,3.9,3.2,6.1,6.2,6.4c2.1,0.3,4.1,0.1,5.9-1.4
		c1,1.7,1.9,3.3,3.2,4.6c2.2,2.1,4.7,2.5,7.5,1.9c2.8-0.6,5.2-1.9,7.1-4.1c0.4-0.5,0.9-0.9,1.4-1.4c0.4-0.4,0.9-0.7,1.4-0.2
		c0.7,0.7,1.8,0.7,2.3,1.6c-1.5,0.7-3.2,1.2-4.4,2.5c2.2-0.3,4.3-1.2,6.5-0.4c0.8,0.3,1.5-0.3,2.3-0.5c1-0.3,0.7-1,0.3-1.7
		c0-0.7,0.4-1.2,0.9-1.6c1.8-2,2.3-4.2,1.7-6.8c-0.6-2.6-1.8-4.9-3.4-7.2c1.2-0.2,2,0.2,2.8,0.8c0.2,0.2,0.3,0.3,0.5,0.5
		c0,0,0,0,0,0c0.7,2,1.5,4,2.1,6c0.9,3.5,0.8,6.8-2.2,9.4c-0.4,0.3-1,0.6-0.8,1.3c1.3,0.4,2.2-0.8,3.4-0.9c-0.4,1.8-2.1,1.8-3.2,1.9
		c-5,0.2-9.2,2.4-12.9,5.5c-3.4,2.8-8.2,3.2-12,0.6c-1.2-0.8-2.3-1.6-3.5-2.5c-2.6-1.9-5.6-2.6-8.6-3.5c-0.9-0.3-1.7,0.8-2.5,0
		c-0.2-0.3-0.3-0.7-0.5-1c3.4-0.3,6.7-0.5,10.1,0.3c-2.1-1.5-4.3-2.5-6.7-2.9c-2-0.4-2.9,0.1-3.8,2.2c-0.7,0-1.1-0.5-1.5-1
		C269.3,308,269.6,302.1,271.4,299.8z M287.8,314.6c0,0.1,0,0.1,0.1,0.2c0,0,0.1,0,0.1,0C287.9,314.8,287.8,314.7,287.8,314.6
		c-0.1-0.2-0.2-0.3-0.2-0.1C287.6,314.5,287.7,314.6,287.8,314.6z M298.3,315.1c-1.5,0.3-3,1-4.6,1c-1.7,0.1-3.1-1.1-4.9-0.8
		c2.3,2.9,7.4,2.9,9.4,0.2C298.3,315.5,298.3,315.3,298.3,315.1c0.2-0.1,0.6,0.2,0.5-0.3C298.8,314.7,298.4,314.9,298.3,315.1z"/>
	<path class="st11" d="M264.7,338.6c0.5-0.6,1.2-0.5,1.8-0.4c4.2,0.1,8.4-1,12.5-1.3c3.5-0.3,7-0.6,10.5,0.3c0.1,0,0.2,0,0.2,0
		c2.4,1.7,4.8,1,7.4,0.1c3-1.1,6.2-0.8,9.2-0.4c5.3,0.8,10.6,1.9,16.1,1.9c-1.7,1.8-3.8,2.5-6.2,2.8c-4.6,0.5-9.2,0.5-13.8,0.5
		c-1.2,0-2.4,0.1-3.5,0.4c-2.6,0.7-5.2,0.9-7.8,0.5c-5.4-0.8-10.8-0.6-16.1-1.4C271.4,341,267.9,340.3,264.7,338.6z M296.9,339.6
		c-0.2,0-0.5-0.1-0.3,0.3C296.7,339.8,296.8,339.7,296.9,339.6c0-0.1,0.1-0.1,0.1-0.1c0,0,0-0.1,0-0.1
		C297,339.5,296.9,339.5,296.9,339.6z M296.2,340c-1.5,0.3-2.5,0.5-3.6,0.7C293.9,342.3,294.5,342.2,296.2,340z"/>
	<path class="st8" d="M320.9,342c-0.1,1.5-1.3,2.2-2.2,2.9c-2.1,1.7-4.1,3.5-6.3,5c-4,2.8-8.3,4.5-13.1,5.1
		c-2.2,0.3-4.4,0.3-6.6,0.4c-0.1-1-0.6-1.7-1.6-1.8c-0.9-0.2-1.8-0.5-2.8-0.6c-6.5-0.8-11.8-3.9-15.7-9.2c0.9-0.2,1.9,0.1,2.8,0.1
		c0.1,0.9,0.9,1.1,1.6,1.3c0.5,0.1,1.1,0.1,1.4,0.7c0.2,0.1,0.3,0.3,0.5,0.4l0,0c7,7.1,18.8,5.9,25.8,0.1c-2.1,0.1-3.7,1.4-5.6,1.4
		c0-0.2,0-0.3,0-0.5c0-0.8,0.6-1.5,0.5-2.4c1.2-0.1,2.4-0.1,3.7-0.2c0.3,0,0.5-0.1,0.6-0.3c2.1-0.3,4.3-0.6,6.4-0.9
		C313.6,343.1,317.2,342.5,320.9,342z"/>
	<path class="st1" d="M242.1,247.5c3.4,0,6.8-0.3,10.3,0c3.3,0.3,6.7,0.6,9.8,1.8c4.7,1.7,7.6,5.3,9.9,9.6c0.3,0.6-0.5-0.2-0.7,0.1
		c0-0.3-0.1-0.6-0.5-0.5c0.1-0.4,0-0.7-0.5-0.8c0,0-0.2,0.1-0.2,0.1c0.1,0.4,0.2,0.7,0.7,0.7c-0.1,0.4,0,0.6,0.5,0.5
		c-0.3,1,0.5,1.5,0.8,2.3c0.3,0.8,0,1.1-0.8,1.2c-2.4-0.8-4.8-1-7.2-1.6c0.5-0.6,1.3-0.4,2-0.5c1.7-0.4,1.8-0.6,0.9-1.9
		c-0.7-1-1.6-1.8-2.5-2.5c-1.6-1.3-3.5-2.1-5.3-2.9c-1.1-0.3-2.3-0.6-3.4-0.9c-2.2-0.5-4.5-1.2-6.8-0.7c-1.2,0.2-2.3,0.3-3.5,0.4
		c-1.2,0.3-2.5,0.6-3.7,1.1c-1.7,0.6-3.2,1.4-4.5,2.6c-1.6,1.4-1.5,2.1,0.1,3.4c0.5,0.4,1.2,0.5,1.4,1.1c-1.3-0.4-2.6-0.7-3.9-1.1
		c-0.3-1.4-1.6-1.2-2.6-1.5c0.4-1.3,0.5-2.7,1.6-3.7c0.1-0.1,0-0.3,0-0.5c0.3,0,0.6,0.1,0.9,0c0.3,0,0.6-0.1,0.7-0.4
		c0-0.1,0-0.3-0.1-0.4c-0.4-0.3-0.7-0.2-1,0.1c-0.2,0.2-0.4,0.5-0.6,0.7c-0.6,0-1.1,0.5-1.5,0.9c-0.2,0.2-0.5,0.6-0.9,0.1
		C234.3,250.7,237.6,248.1,242.1,247.5z M268.2,255.3c0.2,0.6,0.4,0.9,0.8,1c0.1,0,0.3-0.1,0.3-0.2
		C269.1,255.8,268.9,255.4,268.2,255.3z M239.1,250c-0.1,0.1-0.4,0.2-0.4,0.4c-0.1,0.3,0.2,0.4,0.4,0.4c0.2,0,0.5-0.1,0.5-0.4
		C239.6,250.1,239.5,250,239.1,250z"/>
	<path class="st1" d="M311,263.8c0.4-0.9,0.7-1.8,1.1-2.6c0.3-0.6,0.8-1.1,0.5-2c-0.3-0.9,0.5-1.6,1.1-2.3c3.5-4.6,8.3-7,13.9-8
		c4.1-0.7,8.2-0.6,12.2,0.8c0.1,0,0.2,0.1,0.2,0.1c1.1-0.2,1.8,0.3,2.7,0.8c0.9,0.5,1.8,1.1,2.7,1.7c1.6,1,3,2.3,4.3,3.8
		c-0.1,0.5-0.7,0.5-0.8,0.7c-0.5,1.1-0.5,1.2-1.1,1.5c-0.4,0.2-0.6,0.5-0.6,0.9c-0.1,0.1-0.2,0.1-0.4,0.2c-0.5-0.2-1.3,0.3-1.5-0.6
		c0.9-1.3-0.1-2-0.8-2.8c-2-1.9-4.5-2.8-7-3.7c-0.7,0-1.4-0.1-2.1-0.1c-1.3,0.2-2.5-0.7-3.8-0.5c-0.2,0-0.3,0-0.5,0
		c-1.3,0.3-2.6,0.6-3.8,0.9c-1.2,0.2-1.5,0.9-1.4,2c0,0.2,0,0.3-0.1,0.4c-0.8,0.1-1.3-0.2-1.4-1.1c-0.1-0.1-0.1-0.2,0-0.2
		c0-0.3-0.1-0.6-0.4-0.2c-3.5,1.7-6.7,3.6-8.3,7.4c1.2,0.6,2.5,0.1,3.2,1.2C316.1,262.4,313.7,263.5,311,263.8z M314.5,258
		c0.2-0.3,0.3-0.5,0.4-0.7c0.1-0.2,0-0.4-0.2-0.4c-0.2,0.1-0.4,0.3-0.5,0.4C314.2,257.4,314.4,257.6,314.5,258z"/>
	<path class="st12" d="M303,344.8c-1.2,0.1-2.4,0.1-3.7,0.2c-1,0-1.9,0-2.9,0c-2.9,0-5.8,0.1-8.6-0.2c-4.2-0.5-8.4-0.2-12.6-0.8
		c-0.9-0.1-1.9-0.3-2.8-0.1c0,0,0,0,0,0c0-0.2,0-0.3,0-0.5c-2.6-0.9-5.1-1.9-7.7-2.8c-1.8-0.6-3.4-1.7-5.3-1.8
		c-1-0.8-2.2-1.2-3.4-1.7c-1.1-0.4-2.2-0.9-3.1-1.8c-0.3-0.3-0.6-0.6-0.5-1c0.2-0.6,0.8-0.5,1.2-0.4c0.8,0.2,1.5,0.5,2.2,0.9
		c2.5,1.1,4.9,2.3,7.4,3.5c0.1,0.2,0.3,0.3,0.5,0.3c0.3,0.1,0.6,0.1,0.9,0.2c3.2,1.7,6.7,2.4,10.2,2.9c5.4,0.7,10.8,0.5,16.1,1.4
		c2.6,0.4,5.3,0.2,7.8-0.5c1.2-0.3,2.4-0.4,3.5-0.4c4.6,0,9.2,0,13.8-0.5c2.4-0.2,4.5-1,6.2-2.8c2.4-1.4,5-2,7.7-2.3
		c0.5-0.1,1-0.2,1.2,0.4c0.2,0.6-0.4,0.8-0.8,1c-0.5,0.3-1,0.6-1.5,0.7c-2.8,0.4-5.3,1.7-7.7,3.2c-0.3,0-0.4,0.1-0.5,0.3
		c0,0,0,0,0,0c-3.6,0.5-7.2,1.1-10.9,1.6c-2.1,0.3-4.3,0.6-6.4,0.9C303.4,344.6,303.2,344.7,303,344.8z"/>
	<path class="st11" d="M259.4,338.7c1.9,0.1,3.6,1.2,5.3,1.8c2.6,0.9,5.2,1.9,7.7,2.8c-0.3,0.2-0.4,0.3,0,0.5c0,0,0,0,0,0
		c3.9,5.3,9.2,8.3,15.7,9.2c1,0.1,1.8,0.4,2.8,0.6c0.9,0.2,1.5,0.8,1.6,1.8c-4.2,0.3-8.2-0.4-12.3-1c-4.2-0.7-7.8-2.8-11-5.4
		c-3.4-2.7-6.7-5.7-9.3-9.2C259.7,339.5,259.6,339.1,259.4,338.7z"/>
	<path class="st5" d="M245.5,251.8c1.2-0.1,2.3-0.2,3.5-0.4c2.3-0.5,4.5,0.2,6.8,0.7c1.2,0.2,2.3,0.6,3.4,0.9
		c0.9,3.2,0.6,6.3-1.7,8.9c-3.7,0.6-7.3,1-11,0c-2.3-2.9-2.9-6-1.2-9.4C245.5,252.3,245.4,252,245.5,251.8z M246.6,255
		c-0.3,1.1,0,1.9,1,2.4c0.6-0.8,1-1.5,0.7-2.4c0-0.2,0-0.3,0.1-0.5c0.5,0,0.6,0.3,0.6,0.7c0,0.5-0.1,1.1,0.3,1.5
		c0.2,0.4,0.3,0.7,0.5,1.1c0.7,1.1,2.6,1.6,3.7,1c1-0.6,1.5-2.5,0.9-3.6c-0.9-1.5-2-1.8-3.8-0.8c-0.5-0.2-1-0.9-1.5-0.1
		c-0.1-0.1-0.3-0.3-0.4-0.4c-0.4-0.9-0.7-0.9-1.8-0.1c-0.3,0.1-0.4,0.3-0.3,0.6C246.6,254.5,246.6,254.7,246.6,255z"/>
	<path class="st11" d="M341.5,331c-0.1,1.9,0.4,3.8-0.7,5.7c-0.4-0.3-0.2-0.7-0.3-1c0-0.3,0-0.6,0-1c0.2-5.7-2-10.4-6.5-14
		c-0.1-0.1-0.2-0.3-0.3-0.4c0-0.6,0-1.1-0.4-1.6c-2.7-2.4-4.9-5.3-7.3-8c0,0,0,0,0,0c-1.3-4.6-4.8-7.8-7.8-11.3
		c-0.2-0.2-0.6-0.2-0.9-0.3c-0.6-0.9-1.3-1.7-1.4-2.8c1.8-0.4,2.4,1.2,3.4,2.1c3.7,3.4,6.8,7.3,9.2,11.8c0.8,1.6,2.3,2.9,3.5,4.2
		c1.5,1.7,3.1,3.3,4.6,4.9c0,0.4,0.2,0.8,0.4,1.1C339.4,323.7,341,327.1,341.5,331z"/>
	<path class="st8" d="M247.4,322.8c-0.6-0.4-1.3-0.7-2-0.4c-1.8,0.7-3.6,0.2-5.5,0.1c1-0.2,1.9-0.5,2.9-0.7c2.8-0.7,5-2.2,6.8-4.5
		c3-3.8,5.6-7.9,8.7-11.6c4.1-4.9,8.9-8.9,14.7-11.7c0.4-0.2,0.9-0.6,1.2,0c0.2,0.4,0,0.8-0.3,1c-0.2,0.2-0.3,0.3-0.5,0.5
		c0,0,0,0,0,0c-1.8,0.3-2.4,2.2-3.8,3c-2,0.9-3.5,2.4-5.1,3.8c-4.7,4.1-8.2,9.4-12.4,14.1C250.4,318.3,249,320.6,247.4,322.8z"/>
	<path class="st11" d="M247.4,322.8c1.6-2.2,2.9-4.5,4.7-6.5c4.1-4.7,7.6-9.9,12.4-14.1c1.6-1.4,3.1-2.9,5.1-3.8
		c-0.1,0.9-0.3,1.7-1,2.4c-0.2-0.3-0.5-0.3-0.8,0c-2.6,2.4-4.9,5.1-7.1,7.9c-0.5,0.6-0.9,1.3-0.8,2.1c-3.2,3.1-6.2,6.3-8.7,10.1
		c-2.2,2.3-3.5,5.1-4.3,8.2c0,0.3,0,0.6,0,0.9c-0.8,1.3-0.8,2.6,0,3.9c0,0.6,0,1.3,0,1.9c-1.7-2.3-1.7-4.9-1.3-7.4
		c0.2-1.5,0.8-3,1.2-4.6C247.3,323.5,247.4,323.2,247.4,322.8z"/>
	<path class="st13" d="M335.3,252.2c0.7,0,1.4,0.1,2.1,0.1c1.9,3.7,1.8,7.2-1,10.4c-0.2,0-0.5,0-0.7,0c-0.5-0.4-0.6-1-0.4-1.5
		c0.2-0.8,0.8-1.7-0.3-2c-1-0.3-0.8,0.9-1.1,1.5c-0.4,0.8-0.6,1.3-1.6,0.9c-0.4-0.2-0.8,0-1.2,0c-1.2,0.2-2.1-0.6-3.2-0.9
		c-0.8-0.2-0.9-1.4-1-2.3c0.1-0.5,0.1-0.9,0.2-1.4c0.3,0.6,0.6,1,1.3,0.5c0,0.8,0.5,1.3,1.1,1.8c1.1,1,2.3,0.9,3.4-0.2
		c1.1-1.1,1.1-2.2,0.2-3.4c-1.1-1.4-2.5-1.1-3.9-1c-0.3,0-0.5-0.1-0.8-0.1c-0.3,0-0.5,0-0.8,0c-0.1-0.3-0.2-0.6-0.3-0.9
		c1.8-0.5,3.5-1.1,5.5-0.6C333.8,253.3,335,253.7,335.3,252.2z"/>
	<path class="st14" d="M245.5,251.8c0,0.2,0,0.5-0.1,0.7c-1.7,3.4-1.1,6.5,1.2,9.4c-2,0.1-3.8-0.7-5.7-1.4c-0.7-0.2-1.3-0.6-2-0.5
		c-0.3-0.6-1-0.8-1.4-1.1c-1.7-1.2-1.7-2-0.1-3.4c1.3-1.2,2.9-2,4.5-2.6C243,252.4,244.2,252.1,245.5,251.8z"/>
	<path class="st14" d="M324.2,253.8c-0.1,0.1-0.1,0.2,0,0.2c-0.3,0.2-0.4,0.5-0.5,0.8c-0.8,3,0.1,5.6,2,8c-2.4,0.3-4.6-0.9-7-0.5
		c-0.7-1.1-2.1-0.6-3.2-1.2c1.6-3.8,4.8-5.8,8.3-7.4C323.9,253.7,324,253.8,324.2,253.8z"/>
	<path class="st14" d="M336.4,262.8c2.8-3.2,2.9-6.8,1-10.4c2.5,0.9,5,1.8,7,3.7c0.8,0.7,1.8,1.5,0.8,2.8c-1,0.5-2,1.1-2.7,2
		C340.5,261.4,338.6,262.5,336.4,262.8z"/>
	<path class="st14" d="M257.5,261.9c2.2-2.7,2.6-5.7,1.7-8.9c1.8,0.9,3.7,1.7,5.3,2.9c0.9,0.7,1.8,1.5,2.5,2.5
		c0.9,1.3,0.8,1.5-0.9,1.9c-0.7,0.1-1.5-0.1-2,0.5C262,260.9,259.8,261.9,257.5,261.9z"/>
	<path class="st8" d="M341.5,331c-0.6-3.9-2.1-7.3-4.4-10.4c-0.3-0.3-0.4-0.7-0.4-1.1c0.8-0.1,1.6,0.3,2.3,0.6
		c2.1,1.1,4.3,1.5,6.6,1.7c1.5,0.2,3,0.6,4.7,0.7c-1.4,1.1-2.8,2.1-4.6,2.1c-0.4,0-0.8,0-1.2,0c-2.5,0-2.5,0-2.1,2.5
		c0.1,0.9,0.1,1.9,0.1,2.9C342.4,330.6,342.1,330.9,341.5,331z"/>
	<path class="st5" d="M325.7,262.8c-1.9-2.3-2.8-5-2-8c0.1-0.3,0.2-0.6,0.5-0.8c0.1,0.9,0.6,1.1,1.4,1.1c0.1,0.2,0.1,0.4,0.2,0.5
		c-0.2,0.4-0.1,0.9,0,1.3c-0.1,1,0.3,1.5,1.3,1.5c0,0.9,0.1,2.1,1,2.3c1.1,0.3,2,1.2,3.2,0.9c0.4-0.1,0.8-0.2,1.2,0
		c0.9,0.4,1.2-0.1,1.6-0.9c0.2-0.5,0-1.8,1.1-1.5c1.1,0.3,0.5,1.3,0.3,2c-0.2,0.6-0.2,1.1,0.4,1.5c-2.4,0.9-4.8,0.4-7.2,0.5
		c-0.8,0-1.6,0-2.3-0.1C326.1,263,325.9,262.8,325.7,262.8L325.7,262.8z"/>
	<path class="st3" d="M268.6,300.8c0.6-0.7,0.9-1.5,1-2.4c1.4-0.8,2-2.6,3.8-3c-0.5,1.5-1.7,2.7-2,4.3c-1.8,2.4-2.1,8.2,0,10.6
		c0.4,0.5,0.8,1,1.5,1l0,0c0.1,0.3,0.2,0.4,0.5,0.5l0,0c0.2,0.3,0.3,0.7,0.5,1c-1.4,0.2-2.5-0.7-3.8-1c-1.4-1.6-2.4-3.3-2.4-5.6
		C267.6,304.3,268.2,302.5,268.6,300.8z"/>
	<path class="st8" d="M268.6,300.8c-0.5,1.8-1,3.5-1,5.4c0,2.2,1,4,2.4,5.6c-1.7,0.7-3.4,0-4.3-1.9c-0.6-1.2-0.5-2.6-0.6-4.2
		c-2.1,1.7-3.1,4-5.2,5.2c-0.1-0.9,0.3-1.5,0.8-2.1c2.2-2.8,4.5-5.5,7.1-7.9C268.1,300.5,268.4,300.4,268.6,300.8z"/>
	<path class="st3" d="M316.1,296.4c0.1,1.1,0.8,1.9,1.4,2.8c0.1,1.6,0.7,2.9,1.3,4.3c0,0.3,0,0.7,0,1c-0.6,0.8-0.3,1.6-0.3,2.4
		c0,0.3-0.1,0.6-0.1,0.9c-0.6,0.5-0.8,1.2-1,1.9c-0.4,0.2-0.7,0.5-0.9,0.9c-1.2,0.1-2.1,1.3-3.4,0.9c-0.1-0.7,0.5-1,0.8-1.3
		c3-2.6,3.1-5.9,2.2-9.4c-0.5-2.1-1.4-4-2.1-6C315.1,295.1,315.6,295.7,316.1,296.4z"/>
	<path class="st8" d="M247,323.8c-0.4,1.5-1,3-1.2,4.6c-0.4,2.6-0.5,5.2,1.3,7.4c0.7,0.7,1.1,1.5,0.8,2.6c-3.1-2.2-4.5-6-3.7-9.5
		c0.3-1.3,0.7-2.6,1.3-3.8C245.7,324.3,246.1,323.8,247,323.8z"/>
	<path class="st8" d="M318.8,303.5c-0.6-1.4-1.3-2.8-1.3-4.3c0.3,0.1,0.7,0.1,0.9,0.3c3,3.5,6.5,6.6,7.8,11.3
		c-1.2-0.3-1.6-1.4-2.3-2.2c-0.9-1.1-1.7-2.3-2.6-3.3C320.6,304.5,320,303.6,318.8,303.5z"/>
	<path class="st10" d="M234,253.2c0,0.2,0.1,0.4,0,0.5c-1,1-1.2,2.4-1.6,3.7c1,0.3,2.3,0.1,2.6,1.5c-1.4,0-2.9,0-4.3,0
		c-0.8,0-1.2-0.3-0.8-1.2c0.5-1.2,0.3-2.7,1.7-3.5c0.4,0.5,0.6,0.1,0.9-0.1C232.9,253.7,233.4,253.2,234,253.2L234,253.2z"/>
	<path class="st3" d="M311.7,309.4c0.4,0.7,0.6,1.4-0.3,1.7c-0.7,0.3-1.5,0.8-2.3,0.5c-2.2-0.8-4.3,0-6.5,0.4
		c1.2-1.3,2.9-1.8,4.4-2.5C308.6,309.5,310.2,309.4,311.7,309.4z"/>
	<path class="st8" d="M326.2,310.8c2.4,2.7,4.6,5.6,7.3,8c0.5,0.4,0.4,1,0.4,1.6c-2.5-1.9-4.5-4.3-6.8-6.5
		C326.3,313,326,312,326.2,310.8z"/>
	<path class="st8" d="M247,329.1c0.8-3.1,2-5.9,4.3-8.2c0.7,0.1,1.1,0.3,0.6,1.1c-0.6,0.8-1.3,1.6-1.8,2.5c-0.8,1.2-1.6,2.4-2.1,3.8
		C247.8,328.7,247.5,329,247,329.1z"/>
	<path class="st10" d="M347.2,259.2c0-0.4,0.3-0.7,0.6-0.9c0.7-0.4,0.6-0.4,1.1-1.5c0.1-0.3,0.7-0.3,0.8-0.7c0.1,0,0.3,0,0.4,0
		c0.1,0.3,0.2,0.4,0.5,0.5c0,0,0,0,0,0c0.3,0.9,1.2,1.5,1.2,2.8C350.2,259.4,348.7,259.5,347.2,259.2z"/>
	<path class="st8" d="M247,333.9c-0.7-1.3-0.8-2.6,0-3.9C247.7,331.3,247.7,332.6,247,333.9z"/>
	<path class="st10" d="M342.6,260.8c0.8-0.9,1.7-1.5,2.7-2c0.3,0.9,1,0.4,1.5,0.6C345.5,260.3,344.1,260.9,342.6,260.8z"/>
	<path class="st8" d="M318.5,307c0-0.8-0.3-1.7,0.3-2.4C319.7,305.8,319.7,306.2,318.5,307z"/>
	<path class="st8" d="M317.5,309.8c0.1-0.7,0.4-1.4,1-1.9C318.9,309,318.8,309.3,317.5,309.8z"/>
	<path class="st8" d="M320.9,342c0.1-0.2,0.2-0.4,0.5-0.3C321.2,341.8,321,341.9,320.9,342z"/>
	<path class="st14" d="M325.7,262.8c0.3,0.1,0.5,0.2,0.6,0.5C326,263.1,325.8,262.9,325.7,262.8z"/>
	<path class="st11" d="M263.8,338.4c-0.3,0.1-0.4-0.1-0.5-0.3C263.4,338.3,263.6,338.4,263.8,338.4z"/>
	<path class="st3" d="M314.2,295c-0.2-0.2-0.3-0.3-0.5-0.5C313.8,294.6,314,294.8,314.2,295z"/>
	<path class="st3" d="M273.3,295.5c0.2-0.2,0.3-0.3,0.5-0.5C273.7,295.1,273.5,295.3,273.3,295.5z"/>
	<path class="st8" d="M229.7,297.3c0-3,1.2-5.3,3.5-5.9c1.9-0.5,3.9-0.6,5.8,0.3c3.5,1.7,5.8,6.2,5,10c-0.9,4.6-4.5,5.4-8,4.6
		C232.1,305.3,229.7,301.7,229.7,297.3z"/>
	<path class="st8" d="M355.9,298.8c0.2,1.7-0.4,3.3-1.2,4.8c-1.7,3.2-5.5,3.7-8.2,1.4c-3.2-2.6-3.6-9.4-0.6-12.6c2.8-3,6.4-2,8.5,1
		C355.5,295,356.1,296.8,355.9,298.8z"/>
	<path class="st6" d="M350.6,256.6c-0.3-0.1-0.4-0.3-0.5-0.5C350.3,256.3,350.5,256.4,350.6,256.6z"/>
	<path class="st3" d="M272.9,311.3c0.9-2,1.8-2.5,3.8-2.2c2.4,0.5,4.7,1.5,6.7,2.9c-3.4-0.8-6.7-0.7-10.1-0.3c0,0,0,0,0,0
		C273.3,311.5,273.1,311.3,272.9,311.3L272.9,311.3z"/>
	<path class="st3" d="M298.3,315.1c0,0.2,0,0.4-0.1,0.5c-2,2.7-7.1,2.7-9.4-0.2c1.8-0.3,3.2,0.9,4.9,0.8
		C295.3,316.1,296.8,315.5,298.3,315.1L298.3,315.1z"/>
	<path class="st3" d="M298.3,315.1c0.1-0.2,0.5-0.4,0.5-0.3C299,315.3,298.5,315,298.3,315.1C298.3,315.1,298.3,315.1,298.3,315.1z"
		/>
	<path class="st3" d="M287.8,314.6c-0.1,0-0.2-0.1-0.2-0.1C287.6,314.4,287.7,314.4,287.8,314.6L287.8,314.6z"/>
	<path class="st3" d="M287.7,314.6c0.1,0.1,0.1,0.1,0.2,0.2c0,0-0.1,0-0.1,0C287.8,314.7,287.8,314.7,287.7,314.6
		C287.8,314.6,287.7,314.6,287.7,314.6z"/>
	<path class="st14" d="M296.2,340c-1.6,2.2-2.3,2.3-3.6,0.7C293.7,340.5,294.7,340.3,296.2,340z"/>
	<path class="st14" d="M296.9,339.6c-0.1,0.1-0.2,0.2-0.2,0.3C296.4,339.5,296.7,339.6,296.9,339.6L296.9,339.6z"/>
	<path class="st14" d="M296.9,339.6c0.1-0.1,0.1-0.2,0.2-0.2c0,0,0,0.1,0,0.1C297,339.5,296.9,339.6,296.9,339.6
		C296.9,339.6,296.9,339.6,296.9,339.6z"/>
	<path class="st11" d="M275.3,344c4.2,0.6,8.4,0.3,12.6,0.8c2.8,0.3,5.7,0.1,8.6,0.2c1,0,1.9,0,2.9,0c0.1,0.8-0.5,1.5-0.5,2.4
		c-2.2,0-4.3,0-6.5,0c-2.3-0.1-4.6,0.1-6.9-0.4c-1.4-0.3-2.9-0.5-4.4-0.1c-0.8-0.1-1.5-0.7-2.4-0.5c0,0,0,0,0,0
		c0-0.2-0.2-0.4-0.5-0.4c-0.3-0.6-0.9-0.5-1.4-0.7C276.1,345.1,275.4,344.9,275.3,344z"/>
	<path class="st14" d="M278.6,346.3c0.9-0.2,1.6,0.4,2.4,0.5c5.8,2.5,11.7,2.5,17.8,1c1.9,0,3.6-1.3,5.6-1.4
		C297.4,352.2,285.6,353.4,278.6,346.3z"/>
	<path class="st9" d="M298.8,347.8c-6,1.6-12,1.6-17.8-1c1.5-0.4,3-0.2,4.4,0.1c2.3,0.5,4.6,0.3,6.9,0.4c2.2,0,4.3,0,6.5,0
		C298.8,347.4,298.8,347.6,298.8,347.8z"/>
	<path class="st11" d="M303,344.8c0.2-0.1,0.4-0.2,0.6-0.3C303.4,344.7,303.2,344.8,303,344.8z"/>
	<path class="st14" d="M278.2,346c0.2,0,0.4,0.1,0.5,0.4C278.5,346.2,278.4,346.1,278.2,346z"/>
	<path class="st10" d="M234,253.2c0.2-0.2,0.3-0.5,0.6-0.7c0.3-0.2,0.7-0.4,1-0.1c0.1,0.1,0.1,0.3,0.1,0.4c-0.1,0.3-0.4,0.4-0.7,0.4
		C234.6,253.3,234.3,253.2,234,253.2C234,253.2,234,253.2,234,253.2z"/>
	<path class="st10" d="M268.2,255.3c0.7,0.1,0.9,0.4,1.1,0.8c0,0-0.2,0.2-0.3,0.2C268.6,256.2,268.3,255.9,268.2,255.3z"/>
	<path class="st2" d="M239.1,250c0.4,0,0.5,0.1,0.5,0.4c0,0.3-0.3,0.4-0.5,0.4c-0.2,0-0.5-0.1-0.4-0.4
		C238.7,250.2,239,250.1,239.1,250z"/>
	<path class="st8" d="M271,258.5c-0.5,0.1-0.6-0.3-0.7-0.7c0,0,0.1-0.1,0.2-0.1C270.9,257.8,271,258.1,271,258.5L271,258.5z"/>
	<path class="st8" d="M270.9,258.5c0.4-0.1,0.5,0.1,0.5,0.5c0,0,0,0,0,0C271,259.1,270.9,258.8,270.9,258.5
		C271,258.5,270.9,258.5,270.9,258.5z"/>
	<path class="st5" d="M335.3,252.2c-0.3,1.5-1.5,1-2.3,0.9c-1.9-0.5-3.7,0.1-5.5,0.6c-0.8,0-1.3,0.5-1.8,1c-0.1-1.1,0.2-1.8,1.4-2
		c1.3-0.3,2.6-0.6,3.8-0.9c0.2,0.3,0.3,0.3,0.5,0C332.8,251.6,334,252.4,335.3,252.2z"/>
	<path class="st14" d="M325.7,254.7c0.5-0.5,1.1-0.9,1.8-1c0.1,0.3,0.2,0.6,0.3,0.9c-0.2,0.4-0.4,0.8-0.6,1.1
		c-0.5-0.2-0.9-0.2-1.4-0.1c-0.1-0.2-0.1-0.4-0.2-0.5C325.7,255,325.7,254.8,325.7,254.7z"/>
	<path class="st2" d="M314.5,258c-0.2-0.4-0.3-0.5-0.2-0.6c0.1-0.2,0.3-0.4,0.5-0.4c0.1,0,0.2,0.2,0.2,0.4
		C314.9,257.5,314.7,257.7,314.5,258z"/>
	<path class="st5" d="M324.2,253.8c-0.2,0-0.3-0.1-0.4-0.2C324.1,253.2,324.2,253.4,324.2,253.8z"/>
	<path class="st13" d="M331.5,251.8c-0.2,0.3-0.3,0.3-0.5,0C331.1,251.8,331.3,251.8,331.5,251.8z"/>
	<path class="st8" d="M272.4,343.9c-0.4-0.2-0.3-0.3,0-0.5C272.5,343.6,272.4,343.7,272.4,343.9z"/>
	<path class="st1" d="M250.6,254.3c1.7-0.9,2.9-0.7,3.8,0.8c0.6,1.1,0.1,3-0.9,3.6c-1.1,0.6-3,0.1-3.7-1c-0.2-0.3-0.4-0.7-0.5-1.1
		C249.6,255.9,250.5,255.3,250.6,254.3z"/>
	<path class="st11" d="M250.6,254.3c-0.1,1-1,1.6-1.4,2.4c-0.4-0.4-0.2-1-0.3-1.5c0-0.4-0.1-0.7-0.6-0.7c-0.1-0.3-0.1-0.6,0.3-0.7
		c0.1,0.1,0.3,0.3,0.4,0.4C249.7,253.4,250.1,254.1,250.6,254.3z"/>
	<path class="st14" d="M248.7,253.8c-0.4,0.1-0.4,0.4-0.3,0.7c0,0.2,0,0.3-0.1,0.5c-0.6,0.2-1.2,0.1-1.7,0c0-0.2,0-0.4,0.1-0.7
		c0.3-0.1,0.3-0.3,0.3-0.6C248,252.9,248.2,252.9,248.7,253.8z"/>
	<path class="st10" d="M246.6,255c0.6,0.1,1.2,0.2,1.7,0c0.3,0.9-0.1,1.6-0.7,2.4C246.5,256.9,246.3,256,246.6,255z"/>
	<path class="st10" d="M246.9,253.7c0,0.3,0,0.5-0.3,0.6C246.5,254,246.6,253.8,246.9,253.7z"/>
	<path class="st1" d="M329.3,254.7c1.4-0.1,2.8-0.4,3.9,1c0.9,1.1,0.8,2.3-0.2,3.4c-1.1,1.1-2.3,1.2-3.4,0.2
		c-0.5-0.5-1.1-0.9-1.1-1.8c0-0.2,0-0.3,0-0.5C329,256.3,330,255.8,329.3,254.7z"/>
	<path class="st11" d="M329.3,254.7c0.7,1.1-0.4,1.6-0.7,2.3c-0.9-0.8-0.3-1.6,0-2.4C328.8,254.7,329.1,254.7,329.3,254.7z"/>
	<path class="st2" d="M328.5,254.6c-0.3,0.8-0.8,1.6,0,2.4c0,0.2,0,0.3,0,0.5c-0.7,0.6-1,0.1-1.3-0.5c-0.1,0-0.2-0.1-0.3-0.1
		c0.1-0.4,0.1-0.8,0.2-1.2c0.2-0.4,0.4-0.8,0.6-1.1C328,254.6,328.3,254.6,328.5,254.6z"/>
	<path class="st10" d="M327.1,258.4c-1,0-1.4-0.5-1.3-1.5c0.4,0,0.8,0,1.2,0c0.1,0,0.2,0.1,0.3,0.1
		C327.2,257.5,327.2,258,327.1,258.4z"/>
	<path class="st11" d="M327,257c-0.4,0-0.8,0-1.2,0c-0.1-0.4-0.2-0.9,0-1.3c0.5-0.1,0.9-0.1,1.4,0.1C327.1,256.1,327,256.6,327,257z
		"/>
	<path class="st8" d="M272.9,311.3c0.3,0.1,0.4,0.2,0.5,0.5C273.1,311.7,272.9,311.5,272.9,311.3z"/>
</g>
<g id="hair">
	<path class="st13" d="M189.4,228.2c-0.4-4.4-0.9-8.7-1.2-13.1c-1-12-1.1-24-0.4-36c0.5-8.2,1.5-16.2,3.4-24.2
		c3.4-14.1,9.5-26.8,20.1-37c2.4-2.3,4.6-4.7,6.9-7c4.2-4.3,9-8,14.4-10.7c5.4-2.7,10.6-5.6,15.8-8.5c8.3-4.7,17.2-7.1,26.7-7.5
		c3.5-0.2,7-0.6,10.5-1c8.3-1.1,16.4-0.3,24.4,2c11.3,3.2,22.4,7,32.8,12.5c9.1,4.7,16.7,11.1,23.1,19.2
		c13.2,16.7,22.2,35.4,26.6,56.2c2.3,10.8,2.8,21.7,2.5,32.7c-0.2,4.6-0.5,9.1-0.8,13.7c0,0.7,0.1,1.4-0.3,2.1
		c-0.4-0.1-1-0.1-0.8-0.6c0.4-1.5,0-3.1,0.4-4.5c1-3.8,0.1-7.4-0.3-11.1c-0.6-4.7-2.3-9.3-3.1-13.9c-0.2-1-0.7-1.2-1.4-0.5
		c-1.8,2.2-4.2,3-7,2.8c-1.1-0.1-2.2,0-3.4,0c-1.4,0-2.7,0-4.1,0c0-0.2,0-0.3,0-0.5c1.8-0.7,3.6-1.2,5.3-2.1
		c0.7-0.4,1.5-0.7,1.5-1.7c2.2-0.3,3.5-1.6,3.9-3.8c0.6-1.3,1.3-2.6,1.9-3.8c0.9-1.9,0.7-4,0.4-5.9c-0.8-6.2-2.1-12.4-3.9-18.4
		c-0.1-0.5,0-1.4-1.1-1.4c-0.4,2-0.5,4.1-1.7,5.9c-2.9,4.2-7.4,6.2-11.6,8.5c-0.3,0.2-0.6,0.2-0.9,0c-0.5-0.4-0.2-0.9-0.1-1.3
		c2.4-6.3,4.6-12.7,5.7-19.5c0.6-3.6,0.4-7.1-0.9-10.6c-2.1-5.5-5.1-10.5-8.2-15.4c-0.5-0.8-1-1.7-2.2-2.3c0.2,1.1,0.4,1.8,0.6,2.6
		c0.2,0.8,0.4,1.5,0.6,2.3c0.2,0.8,0.5,1.7,0.7,2.5c0.1,0.7,0.8,1.3,0.3,2.3c-2.5-3-4.2-6.3-7.1-8.8c2.5,9.6,2.1,18.8-2.4,27.7
		c-0.2-2.1-0.3-4.1-0.2-6.2c0.1-3.1-0.5-6.1-1.2-9c-2.5-10-8.2-18.1-16-24.7c-5-4.3-10.6-7.6-16.7-10.1c-0.9-0.4-1.8-1-3.3-0.5
		c2.1,1.5,3.6,3,5.1,4.6c1.5,1.6,3.1,3.1,4.4,5c1.3,1.9,2.4,3.7,3.1,5.9c0.7,2.1,1.3,4.2,1.9,6.4c0.5,2,1.3,4.1,1,6.3
		c-0.6-0.9-0.9-1.8-1.4-2.7c-1.4-2.8-3.2-5.3-5.5-7.4c-3.4-3-7.6-5-11.4-7.4c-0.3-0.2-0.7-0.5-1.1-0.1c-0.2,0.6,0.3,0.9,0.6,1.2
		c2.1,2.4,3.9,5,5.4,7.9c1.9,3.7,2.9,7.8,4.1,11.7c0.1,0.4,0.3,0.8,0,1.1c-0.5,0.4-0.9-0.1-1.2-0.4c-1.9-1.9-3.9-3.8-5.8-5.8
		c-0.7-0.7-1.4-1.5-2.8-1.5c0.4,2.4,1.7,4.4,2.2,6.8c-0.8,0-0.9-0.5-1.2-0.9c-2.1-2.9-4.1-5.9-6.2-8.8c-2.5-3.4-5.2-6.7-8-9.8
		c-3-3.3-6.7-5.9-10.3-8.5c-1.3-0.9-2.5-1.9-4.1-2.3c1.5,3.5,2.9,7,4.3,10.5c1.4,3.5,3,9.8,2.7,11.2c-3.2-3.8-5.5-8-8.7-11.8
		c-0.8,1.1-0.9,2.2-0.9,3.3c0,3.4,0,6.9,0,10.3c0,0.6,0,1.1,0.1,1.7c0.6,2.5,0.5,5.1,1.2,7.5c0.2,0.8-0.4,1.2-1.2,0.8
		c-0.5-0.2-0.9-0.6-1.4-0.9c-2.9-1.8-5.6-3.9-8.2-6.2c-3-2.8-5.5-6-6.3-10.2c-0.4-2-0.7-3.9-1.1-5.8c-0.5-2.3-0.7-4.7-1.7-6.8
		c-0.4,3.2,0.2,6.6-1.1,10.1c-2.9-3.9-4.8-8.1-7.9-12.2c-0.7,5.2-1.2,9.9-1.3,14.5c-0.1,4.7,1.1,9.3,1.1,14
		c-3.7-3.9-6.1-8.7-9.8-12.8c-0.6,1.1-0.8,1.9-1,2.8c-0.8,3.8-1,7.6-1,11.4c0,2.1,0.4,4.1,1.4,6c1.1,2.4,2.1,4.8,3.1,7.2
		c0.2,0.4,0.4,0.9,0,1.3c-0.3,0.3-0.6,0.2-0.9,0.1c-4.6-1.5-9.3-2.9-13.4-5.7c-2.1-1.4-3.8-3.1-5.1-5.3c-2.5-4.2-4.5-8.6-6.4-13.1
		c-0.2-0.4-0.3-1-1.2-0.9c-1,4.9-1.4,9.9-0.7,15c0.7,5.1,3,9.7,4.3,15.2c-1.5-1.2-2.6-2-3.7-2.9c-1.5-1.2-3-2.4-4.5-3.5
		c-1.1-0.8-1.6-0.6-1.7,0.7c-0.1,0.9,0,1.9,0.3,2.8c1.1,4.5,3,8.7,4.6,13.1c0.3,0.9,1.2,1.8,0.5,2.7c-0.7,1-1.8,0-2.7-0.2
		c-4.3-0.9-7.7-2.9-9.4-7.3c-1.1-2.9-3-5.4-4.5-8.2c-0.2-0.3-0.4-0.7-0.9-0.6c-0.5,0.1-0.4,0.6-0.5,1c-0.2,1.1,0.5,2,0.5,3.1
		c0,4.3,0.6,8.6,1.5,12.8c0.8,3.9,1.7,7.8,4.4,11c1,1.2,2.2,2.3,3.3,3.5c0.8,0.8,1.6,1.7,2.1,3.3c-3.7-1.5-6.9-3.4-10.9-4.6
		c0.8,2.4,2.9,3.4,3.3,6c-3.2-1.9-6-3.5-8.5-5.6c-1.4-1.2-2.7-2.5-3.3-4.3c-0.1-0.3-0.3-0.6-0.5-0.8c-0.1-0.1-0.4-0.3-0.6-0.3
		c-0.4,0-0.4,0.4-0.4,0.7c0.7,3.9,0.2,7.9,0.9,11.9c0.3,1.6,0.4,3.3,0.8,4.9c1,5,2.8,9.8,5,14.4c0.2,0.5,0.7,0.9,0.3,1.5
		c-2-0.6-3.3-2.6-5.6-3.2c0.7,2.5,1.3,4.8,2.1,7.5c-1.6-0.8-2.7-1.4-3.9-1.9c-0.5-0.2-1.1-0.8-1.7-0.2c-0.5,0.5-0.2,1-0.1,1.6
		c0.9,3.6,2.2,7.2,3.6,10.6c1.6,3.7,3.9,6.7,7.5,8.7c0.6,0.3,1.5,0.2,1.7,1.1c-0.9,0.6-1.9,0.7-3,0.7c-3.5,0-6.6-1.1-9.6-2.7
		c-0.6-0.3-1.2-0.8-2-0.7C189.7,228.5,189.6,228.4,189.4,228.2z"/>
	<path class="st5" d="M382.7,265.1c-1,1-0.9,2.6-1.9,3.7c-0.3-4.1-0.5-8.2-0.4-12.2c5.4-0.3,9.3-5.1,7.2-11.4
		c-1.4,0.3-2.5,1.5-4.1,1.6c0-1,0.8-1.4,1.2-1.9c2.1-2.5,3.6-5.2,3.9-8.5c0.2-0.1,0.3-0.2,0.1-0.2c0,0-0.1,0.1-0.1,0.2
		c-1.3-0.3-2.2,1.2-3.9,0.7c1.4-1.7,2.6-3.3,3.2-5.2c0.5-1.9,0.8-3.7,0.9-5.7c-0.7,1.2-1.6,2-2.8,2.5c-1.1,0.5-2.1,1.2-3.4,1
		c-1.1-0.1-2.6,0.4-3.2-1.5c3.3,0.3,4.9-1.6,6.2-4c-1-0.7-2,0-2.8-0.7c0.6-1.3,2.5-1.3,2.7-3.1c-1.8,0-3.6,0-5.4,0
		c1.2-0.8,2.4-1.4,3.7-1.8c2.2-0.8,4.2-2,5.7-3.8c0.8-1,1.5-2.1,1.5-3.6c-6.9,5.6-9.7,6.3-15.3,1.5c12.8-1.1,14.9-8.5,13.5-15.7
		c-0.7,1.7-1.6,2.9-2.5,4.1c-2.2,2.7-4.9,4.6-8.6,4.1c-2.2-0.3-4.1-1.2-6.2-2.7c2-0.4,3.3,0.5,4.8,0.3c1.3-0.2,2.7,0.2,4.5-0.3
		c-1.7-1-3.3-1.3-4.7-2.7c2.3,0,4.1,0,6,0c-5.1-1.3-10.8-1.3-14.7-6c4.6-1.5,9-2.6,13.3-4.5c0,1-0.8,1.3-1.5,1.7
		c-1.7,1-3.5,1.4-5.3,2.1c0,0.2,0,0.3,0,0.5c1.4,0,2.7,0,4.1,0c1.1,0,2.2-0.1,3.4,0c2.8,0.2,5.2-0.6,7-2.8c0.6-0.8,1.2-0.6,1.4,0.5
		c0.9,4.7,2.6,9.2,3.1,13.9c0.4,3.7,1.3,7.4,0.3,11.1c-0.4,1.5,0.1,3-0.4,4.5c-0.1,0.5,0.5,0.5,0.8,0.6c0.2,2.6-0.4,5.1-0.2,7.7
		c-0.6,1.9-0.2,3.9-0.8,5.8c-1,6.1-2.2,12.2-4.7,18c2.2-1.6,3.1-4,5.2-6.3c-1.3,4.6-3.2,8.3-5.4,11.9c-1.3,1.5-3.2,2.4-4.2,4.2
		C383.2,263.4,382.9,264.2,382.7,265.1z"/>
	<path class="st5" d="M188.4,282.5c0.5,0.6,0.8,1.3,1,2.1c2,6.9,4.1,13.8,7.5,20.1c2,3.6,5.3,5.3,9.4,4.5c1.6-0.3,1.7-0.3,2,1.3
		c0.6,2.6,1.1,5.3,1.6,8c-3.3,0.9-5.9-0.4-8.2-2.6c-1-0.9-1.9-2-2.7-3c-1.7-2.1-3.1-4.4-4.5-6.7c0.1-0.9,1.2,0,1.2-0.9
		c-1-0.8-2.2-1.1-3.4-1.6c-2.4-0.8-3.8-2.5-4.9-4.7c-1.6-3.4-2.3-7.1-2.8-10.8c-0.3-2.3-0.7-4.6-0.5-7.1
		C185.6,281.6,187,282.1,188.4,282.5z"/>
	<path class="st5" d="M190.2,232.6c0.1-1.3-0.7-2.5-0.4-3.9c0.8-0.1,1.3,0.4,2,0.7c3,1.6,6.1,2.7,9.6,2.7c1.1,0,2-0.2,3-0.7
		c-0.2-0.9-1.2-0.8-1.7-1.1c-3.6-2-5.9-5-7.5-8.7c-1.5-3.4-2.7-7-3.6-10.6c-0.1-0.5-0.4-1.1,0.1-1.6c0.6-0.6,1.2,0,1.7,0.2
		c1.2,0.5,2.3,1.1,3.9,1.9c-0.8-2.7-1.4-4.9-2.1-7.5c2.3,0.6,3.6,2.6,5.6,3.2c0.4-0.6,0-1.1-0.3-1.5c-2.3-4.6-4-9.4-5-14.4
		c-0.3-1.6-0.5-3.3-0.8-4.9c-0.7-3.9-0.1-8-0.9-11.9c-0.1-0.3,0-0.7,0.4-0.7c0.2,0,0.5,0.1,0.6,0.3c0.2,0.2,0.4,0.5,0.5,0.8
		c0.7,1.8,1.9,3.1,3.3,4.3c2.5,2.1,5.3,3.7,8.5,5.6c-0.4-2.6-2.5-3.7-3.3-6c3.9,1.2,7.1,3.1,10.9,4.6c-0.5-1.6-1.3-2.4-2.1-3.3
		c-1.1-1.1-2.3-2.3-3.3-3.5c-2.7-3.1-3.6-7.1-4.4-11c-0.9-4.2-1.5-8.5-1.5-12.8c0-1.1-0.6-2-0.5-3.1c0.1-0.4-0.1-0.9,0.5-1
		c0.5-0.1,0.7,0.3,0.9,0.6c1.5,2.7,3.4,5.2,4.5,8.2c1.7,4.4,5.1,6.4,9.4,7.3c0.9,0.2,1.9,1.1,2.7,0.2c0.6-0.8-0.2-1.8-0.5-2.7
		c-1.6-4.3-3.5-8.6-4.6-13.1c-0.2-1-0.3-1.9-0.3-2.8c0.1-1.3,0.6-1.5,1.7-0.7c1.5,1.1,3,2.3,4.5,3.5c1.1,0.9,2.2,1.7,3.7,2.9
		c-1.3-5.4-3.6-10-4.3-15.2c-0.7-5.1-0.2-10.1,0.7-15c0.9,0,1,0.5,1.2,0.9c1.9,4.5,3.9,8.9,6.4,13.1c1.3,2.2,3.1,3.8,5.1,5.3
		c4.1,2.8,8.8,4.2,13.4,5.7c0.3,0.1,0.6,0.1,0.9-0.1c0.4-0.4,0.2-0.9,0-1.3c-1-2.4-2-4.9-3.1-7.2c-0.9-1.9-1.3-3.9-1.4-6
		c-0.1-3.8,0.2-7.6,1-11.4c0.2-0.9,0.4-1.7,1-2.8c3.7,4.2,6.1,8.9,9.8,12.8c0-4.7-1.2-9.3-1.1-14c0.1-4.7,0.6-9.3,1.3-14.5
		c3.1,4.1,5,8.2,7.9,12.2c1.3-3.5,0.7-6.9,1.1-10.1c1,2.2,1.2,4.6,1.7,6.8c0.4,1.9,0.8,3.9,1.1,5.8c0.8,4.2,3.3,7.4,6.3,10.2
		c2.5,2.3,5.2,4.4,8.2,6.2c0.5,0.3,0.9,0.7,1.4,0.9c0.8,0.4,1.4,0,1.2-0.8c-0.7-2.5-0.6-5-1.2-7.5c-0.1-0.5-0.1-1.1-0.1-1.7
		c0-3.4,0-6.9,0-10.3c0-1.1,0.1-2.2,0.9-3.3c3.2,3.7,5.5,8,8.7,11.8c0.3-1.4-1.4-7.7-2.7-11.2c-1.4-3.5-2.7-7-4.3-10.5
		c1.7,0.5,2.9,1.4,4.1,2.3c3.6,2.6,7.3,5.2,10.3,8.5c2.8,3.1,5.5,6.4,8,9.8c2.1,2.9,4.2,5.8,6.2,8.8c0.3,0.4,0.4,0.9,1.2,0.9
		c-0.5-2.3-1.8-4.4-2.2-6.8c1.4,0,2.1,0.7,2.8,1.5c1.9,1.9,3.8,3.8,5.8,5.8c0.3,0.3,0.7,0.8,1.2,0.4c0.4-0.3,0.1-0.7,0-1.1
		c-1.3-3.9-2.2-8-4.1-11.7c-1.5-2.8-3.3-5.4-5.4-7.9c-0.3-0.3-0.8-0.6-0.6-1.2c0.4-0.4,0.8-0.1,1.1,0.1c3.8,2.4,8,4.4,11.4,7.4
		c2.3,2.1,4.2,4.6,5.5,7.4c0.4,0.9,0.8,1.9,1.4,2.7c0.3-2.2-0.5-4.2-1-6.3c-0.5-2.2-1.2-4.3-1.9-6.4c-0.7-2.2-1.9-4-3.1-5.9
		c-1.3-1.9-2.9-3.5-4.4-5c-1.5-1.5-3.1-3.1-5.1-4.6c1.5-0.5,2.4,0.1,3.3,0.5c6.1,2.5,11.7,5.8,16.7,10.1c7.7,6.7,13.4,14.7,16,24.7
		c0.7,2.9,1.3,5.9,1.2,9c-0.1,2.1,0,4.1,0.2,6.2c4.6-8.8,5-18.1,2.4-27.7c2.9,2.5,4.6,5.8,7.1,8.8c0.5-1-0.2-1.6-0.3-2.3
		c-0.1-0.9-0.5-1.7-0.7-2.5c-0.2-0.8-0.4-1.5-0.6-2.3c-0.2-0.8-0.3-1.5-0.6-2.6c1.2,0.6,1.7,1.5,2.2,2.3c3.1,4.9,6.1,9.9,8.2,15.4
		c1.3,3.4,1.5,7,0.9,10.6c-1.1,6.7-3.3,13.1-5.7,19.5c-0.2,0.5-0.4,0.9,0.1,1.3c0.3,0.2,0.6,0.2,0.9,0c4.3-2.3,8.7-4.3,11.6-8.5
		c1.2-1.8,1.3-3.9,1.7-5.9c1,0,0.9,0.9,1.1,1.4c1.8,6,3.2,12.1,3.9,18.4c0.2,1.9,0.5,4-0.4,5.9c-0.7,0-1.2,0.3-1.8,0.7
		c-2.8,1.9-5.9,3.2-8.9,4.7c-3.7,1.8-8.8,0.5-10.6-2.2c1.5-1,3.6-0.6,5.3-2c-2.1-0.2-4,0.1-5.9-0.9c4.1-1.5,8.4-2.3,11.8-6
		c-2.9,0.7-5.4,1.1-7.8,1.8c-3.2,0.8-6.5,0.8-9.7,0.7c-1.7,0-1.9-0.6-1-2.1c1.3-2,2.7-3.9,3.9-6c2.4-4.1,3.4-8.7,3.9-13.4
		c0.1-1.3,1-2.7,0.3-4.2c-1.6,2.4-3.2,4.6-4.6,6.8c-2.6,4-5.4,7.7-8.9,10.9c-0.7,0.7-1.5,1.2-2.5,1.3l0,0c-0.1-2.5,1.4-4.8,1.3-7.7
		c-1.5,1.4-2.6,2.5-3.8,3.6c0.9-8,1.9-15.8,1.4-24.2c-0.3,1-0.5,1.5-0.6,2c-0.1,0.4-0.1,0.8-0.2,1.2c-1.1,4.8-2.5,9.5-5.5,13.7
		c-2,2.8-4.6,4.4-7.8,5.1c-1.3,0.3-1.6,0-1.6-1.3c-0.1-2.1,0-4.2,0-6.2c0-1.1-0.1-2.2-0.9-3.1c-2.5,2-3.8,5-6.7,6.7
		c-0.3-2.1,0.2-4.2-0.3-6.3c-2,1.4-2.9,3.5-4.2,5.2c-0.4,0.5-0.4,1.7-1.3,1.4c-0.8-0.2-0.5-1.2-0.6-1.9c0-0.5,0-1,0-1.4
		c0.2-3.4-0.3-6.7-1.3-9.9c-0.6-2-0.9-4.1-2-6c0.1,3-0.9,5.8-0.6,8.8c0,0.5,0,1-0.1,1.4c-0.8,4.3-2.4,8.2-4.5,12
		c-0.3,0.5-0.5,1-1,1.3c-0.4,0.3-0.7,0.3-1-0.1c-0.4-0.5-0.7-1-1.1-1.6c-2.6-4.3-5.2-8.6-7.9-12.8c-1.4-2.3-2.6-4.7-4.4-7
		c-1.1,3.6-0.4,7.1-0.6,10.5c-0.3,3.5,1.1,6.8,0.9,10.2c-0.9,0.2-1.1-0.3-1.5-0.6c-2.4-2.1-5-3.9-7.2-6.2c-0.3-0.3-0.6-0.6-1-0.2
		c-0.3,0.2-0.2,0.6-0.1,0.9c0.7,1.9,1.4,3.7,2,5.6c0.1,0.4,0.3,0.8-0.1,1.1c-0.4,0.3-0.8,0.2-1.1-0.1c-2.1-1.4-4.2-2.9-5.9-4.9
		c-3.3-4.2-6.7-8.3-9.6-12.8c-0.3-0.4-0.5-1-1.5-0.7c0.7,3.6,1.2,7.1,2.3,10.6c1.2,3.7,3.8,6.3,6.3,9.3c-6.1,0.4-11.7,0-17.1-2.3
		c-0.1-0.2-0.1-0.3-0.2-0.1c0,0,0.1,0.1,0.2,0.1c0.5,2.5,2.6,4.3,3.3,7c-12.4-0.1-22.2-5.4-31.2-14c0.8,4.1,2.1,7.3,3.2,10.6
		c1.1,3.4,3.3,6,6.5,7.6c1.3,0.6,2.6,1.3,4.1,2c-4.4,1.3-8.6,1.7-12.8,1.6c-4.9-0.1-9.4-1.4-13.5-4.1c-0.7-0.5-1.3-1.2-2.3-1.2
		c-0.1-0.2,0.2-0.7-0.3-0.5c-0.1,0,0.1,0.4,0.3,0.5c0.1,0.8,0.5,1.5,1,2.1c1.1,1.5,2.2,2.9,3.2,4.4c2.8,4,6.5,6.4,11.6,6l0,0
		c-0.2,0.5-0.6,0.7-1,1c-2.2,1.3-4.4,2.5-6.6,3.8c-0.6,0.3-1.2,0.7-1.7,1.6c1.7,0,3.2,0,4.9,0c-0.4,0.5-0.6,0.8-0.8,1
		c-4.5,3.5-9.5,5.9-15,7.2c-4.1,1-7.7,0.3-10.7-2.9c-0.6-0.7-1.6-1.1-2.2-1.5c-0.1,0.8,0.6,1.8,0.9,2.9c1.8,6.8,7.1,10.2,14,9.1l0,0
		c-1.2,4.5-3.7,8.2-7.6,10.6c-3.4,2.2-7.1,2.2-10.5-0.4c-0.1-0.1-0.3,0.1-0.6,0.1c0,1.4,0.6,2.5,1.2,3.7c1.1,2.3,2.7,4,5.3,4.8
		c1.6,0.5,3-0.1,4.5-0.3c0.5-0.1,1.1-0.6,1.6-0.1c0.6,0.6,0,1.2-0.2,1.8c-0.7,2.1-1.8,4.1-3.3,5.8c-1.1,1.3-1.9,2.7-2.7,4.2
		c-0.7,1.4-1.2,2.9-1.6,4.5c-0.3,1,0.2,1.4,1.2,0.8c0.2-0.1,0.4-0.1,0.7,0.4c-0.3,3.3-0.5,6.9-1.6,10.3c-0.2,0.7-0.6,1.5-0.9,2.2
		c-1.1,2.1-3.1,2.9-5,3.7c0.1,1.4,0.7,2.4,1.6,3.2c0.4,0.4,0.8,0.9,0.1,1.3c-3.2-0.6-5.8-2.1-8-4.4c-1.1-2-2.1-4.1-2-6.4
		c0.1-1.3,0.1-2.7,0.1-4c0.8-1.2,0.5-2.8,1.7-4c1.2,2.6,1.2,5.5,2.9,7.8c1.1-6.1,0.5-12-1.8-17.8C191.1,235.4,190.7,234,190.2,232.6
		z"/>
	<path class="st2" d="M198.4,265.7c0.7-0.5,0.4-1-0.1-1.3c-0.9-0.8-1.5-1.8-1.6-3.2c1.9-0.8,3.9-1.6,5-3.7c0.4-0.7,0.7-1.4,0.9-2.2
		c1.1-3.4,1.3-7,1.6-10.3c-0.2-0.5-0.5-0.5-0.7-0.4c-1,0.6-1.5,0.2-1.2-0.8c0.4-1.5,0.9-3.1,1.6-4.5c0.7-1.5,1.5-3,2.7-4.2
		c1.5-1.7,2.6-3.6,3.3-5.8c0.2-0.6,0.8-1.2,0.2-1.8c-0.5-0.5-1,0-1.6,0.1c-1.5,0.2-2.9,0.8-4.5,0.3c-2.6-0.8-4.2-2.5-5.3-4.8
		c-0.6-1.2-1.2-2.4-1.2-3.7c0.3-0.1,0.5-0.2,0.6-0.1c3.4,2.5,7.1,2.6,10.5,0.4c3.9-2.5,6.4-6.1,7.6-10.6c0.1-0.1,0.1-0.1,0.2-0.2
		c-0.1,0.1-0.1,0.1-0.2,0.2c-6.9,1.1-12.2-2.3-14-9.1c-0.3-1.1-1-2.1-0.9-2.9c0.6,0.4,1.5,0.9,2.2,1.5c3,3.2,6.6,3.9,10.7,2.9
		c5.5-1.3,10.5-3.7,15-7.2c0.2-0.2,0.4-0.5,0.8-1c-1.7,0-3.2,0-4.9,0c0.5-0.9,1.1-1.2,1.7-1.6c2.2-1.3,4.4-2.6,6.6-3.8
		c0.4-0.2,0.8-0.5,1-1c0.2-0.1,0.7,0.2,0.5-0.3c0-0.1-0.4,0.1-0.5,0.3c-5.1,0.4-8.8-1.9-11.6-6c-1-1.5-2.2-2.9-3.2-4.4
		c-0.5-0.6-0.9-1.3-1-2.1l0,0c1,0,1.6,0.7,2.3,1.2c4.1,2.7,8.6,3.9,13.5,4.1c4.2,0.1,8.4-0.3,12.8-1.6c-1.5-0.8-2.8-1.4-4.1-2
		c-3.3-1.6-5.4-4.1-6.5-7.6c-1-3.3-2.4-6.5-3.2-10.6c9,8.5,18.9,13.8,31.2,14c-0.7-2.7-2.8-4.5-3.3-7l0,0c5.4,2.3,11.1,2.7,17.1,2.3
		c-2.5-3-5.1-5.7-6.3-9.3c-1.1-3.5-1.7-7.1-2.3-10.6c1-0.3,1.2,0.3,1.5,0.7c2.9,4.5,6.3,8.6,9.6,12.8c1.6,2,3.7,3.5,5.9,4.9
		c0.3,0.2,0.7,0.4,1.1,0.1c0.4-0.3,0.3-0.7,0.1-1.1c-0.7-1.9-1.4-3.7-2-5.6c-0.1-0.3-0.2-0.7,0.1-0.9c0.4-0.3,0.7,0,1,0.2
		c2.2,2.3,4.8,4.2,7.2,6.2c0.3,0.3,0.6,0.8,1.5,0.6c0.2-3.4-1.2-6.8-0.9-10.2c0.3-3.4-0.5-6.8,0.6-10.5c1.8,2.3,3,4.7,4.4,7
		c2.6,4.3,5.2,8.6,7.9,12.8c0.3,0.5,0.7,1.1,1.1,1.6c0.3,0.4,0.7,0.4,1,0.1c0.4-0.4,0.7-0.8,1-1.3c2.1-3.8,3.8-7.7,4.5-12
		c0.1-0.5,0.2-1,0.1-1.4c-0.2-3,0.7-5.8,0.6-8.8c1.1,1.9,1.4,4,2,6c0.9,3.2,1.5,6.5,1.3,9.9c0,0.5,0,1,0,1.4c0,0.7-0.2,1.7,0.6,1.9
		c0.9,0.2,0.9-0.9,1.3-1.4c1.2-1.7,2.1-3.8,4.2-5.2c0.5,2.1,0,4.2,0.3,6.3c2.9-1.7,4.2-4.7,6.7-6.7c0.8,0.9,0.9,2,0.9,3.1
		c0,2.1,0,4.2,0,6.2c0,1.3,0.4,1.6,1.6,1.3c3.2-0.7,5.8-2.3,7.8-5.1c2.9-4.1,4.4-8.8,5.5-13.7c0.1-0.4,0.1-0.8,0.2-1.2
		c0.1-0.5,0.3-1,0.6-2c0.5,8.4-0.5,16.2-1.4,24.2c1.2-1.1,2.4-2.2,3.8-3.6c0.1,2.9-1.4,5.2-1.3,7.7c-0.2,0.1-0.3,0.2-0.1,0.2
		c0,0,0.1-0.1,0.1-0.2c1-0.1,1.8-0.6,2.5-1.3c3.5-3.2,6.3-6.9,8.9-10.9c1.5-2.3,3-4.4,4.6-6.8c0.7,1.6-0.1,2.9-0.3,4.2
		c-0.4,4.7-1.5,9.3-3.9,13.4c-1.2,2.1-2.6,4-3.9,6c-0.9,1.5-0.7,2,1,2.1c3.3,0.1,6.5,0.2,9.7-0.7c2.4-0.6,4.9-1.1,7.8-1.8
		c-3.4,3.7-7.7,4.5-11.8,6c1.9,1,3.8,0.7,5.9,0.9c-1.7,1.4-3.8,1-5.3,2c1.9,2.7,7,4,10.6,2.2c3-1.5,6.1-2.7,8.9-4.7
		c0.5-0.4,1.1-0.7,1.8-0.7c-0.6,1.3-1.3,2.6-1.9,3.8c-1.5,1.1-2.7,2.4-3.9,3.8c-4.2,1.9-8.7,3-13.3,4.5c3.9,4.7,9.5,4.7,14.7,6
		c-1.9,0-3.8,0-6,0c1.3,1.4,3,1.6,4.7,2.7c-1.7,0.4-3.1,0.1-4.5,0.3c-1.5,0.2-2.8-0.7-4.8-0.3c2.1,1.5,4,2.4,6.2,2.7
		c3.7,0.4,6.4-1.4,8.6-4.1c0.9-1.1,1.8-2.3,2.5-4.1c1.4,7.2-0.7,14.6-13.5,15.7c5.6,4.8,8.4,4.1,15.3-1.5c0,1.5-0.7,2.6-1.5,3.6
		c-1.5,1.8-3.5,3-5.7,3.8c-1.3,0.5-2.5,1-3.7,1.8c1.8,0,3.5,0,5.4,0c-0.2,1.8-2.1,1.8-2.7,3.1c0.8,0.7,1.9,0,2.8,0.7
		c-1.4,2.3-2.9,4.3-6.2,4c0.7,1.8,2.1,1.3,3.2,1.5c1.3,0.1,2.3-0.6,3.4-1c1.2-0.5,2.2-1.3,2.8-2.5c0,2-0.3,3.8-0.9,5.7
		c-0.6,2-1.7,3.5-3.2,5.2c1.7,0.5,2.7-1,3.9-0.7l0,0c-0.3,3.3-1.9,6-3.9,8.5c-0.4,0.5-1.2,0.9-1.2,1.9c1.6-0.1,2.7-1.3,4.1-1.6
		c2.2,6.3-1.7,11.1-7.2,11.4c-0.2-1,0.1-2-0.5-2.9c0.1-5.1-0.1-10.3-1.3-15.2c-2.3-9.9-4.9-19.7-8.4-29.2c-3.2-9-8.3-16.5-16.5-21.7
		c-2.5-1.6-5-3.1-7.6-4.6c1-0.8,2.3-0.5,3.6-1.1c-4.2-3.4-8.6-5.4-13.6-6.3c-4.5-0.8-9.1-0.6-13.6-0.2c-3.8,0.3-7.6,0-11.6,0.8
		c0.4-1.4,1.6-1.8,2.1-2.9c-1.2,0.1-1.9,0.6-2.7,0.9c-4.2,1.8-8.4,3.4-12.7,5.1c-5,1.9-10.2,2.7-15.5,2.1c-2.7-0.3-5.4-0.7-8.1-1.2
		c-3.5-0.6-6.9-1.2-10.5-1.9c0.9,1.1,2.3,1.3,3.1,2.7c-10.8,3.9-21.2,8.4-31.1,14.1c0.7,0.6,1.6,0,2.1,0.7c-0.1,0-0.2,0-0.3,0.1
		c-3.6,1-7,2.6-10.2,4.6c-3.6,2.3-5.9,5.5-7.1,9.6c-1,3.5-1.6,7-2.4,10.5c-0.9,4.1-1.8,8.1-4.4,11.5c-0.9,1.2-1.4,2.7-2,4.1
		c-3.2,8.7-3.9,17.7-3,26.9c0.1,1.4,0.3,2.9,0.1,4.3c-0.9,0-1.7-0.1-2.6,0c-1,0.1-2.1-0.4-2.9,0.4c-0.2,0-0.3,0-0.5,0
		c-0.2-0.3-0.6-0.5-0.9-0.5C200.5,266.3,199.3,266.4,198.4,265.7z"/>
</g>
</svg>
